M48
; DRILL file {KiCad 8.0.1} date 2024-04-01T00:46:23-0500
; FORMAT={-:-/ absolute / metric / decimal}
; #@! TF.CreationDate,2024-04-01T00:46:23-05:00
; #@! TF.GenerationSoftware,Kicad,Pcbnew,8.0.1
; #@! TF.FileFunction,Plated,1,2,PTH
FMAT,2
METRIC
; #@! TA.AperFunction,Plated,PTH,ViaDrill
T1C0.400
; #@! TA.AperFunction,Plated,PTH,ComponentDrill
T2C0.500
; #@! TA.AperFunction,Plated,PTH,ComponentDrill
T3C0.800
; #@! TA.AperFunction,Plated,PTH,ComponentDrill
T4C0.950
; #@! TA.AperFunction,Plated,PTH,ComponentDrill
T5C1.040
; #@! TA.AperFunction,Plated,PTH,ComponentDrill
T6C1.200
; #@! TA.AperFunction,Plated,PTH,ComponentDrill
T7C1.300
; #@! TA.AperFunction,Plated,PTH,ComponentDrill
T8C1.450
; #@! TA.AperFunction,Plated,PTH,ComponentDrill
T9C3.200
%
G90
G05
T1
X94.8Y-117.2
X95.0Y-130.4
X97.4Y-117.2
X98.4Y-130.2
X101.6Y-117.4
X102.8Y-130.2
X106.6Y-117.4
X106.6Y-130.0
X111.8Y-130.2
X112.2Y-117.4
X117.2Y-117.4
X119.0Y-130.0
X121.6Y-117.4
X125.8Y-130.0
X126.4Y-117.4
X131.2Y-117.4
X134.8Y-130.0
X137.4Y-117.4
X142.0Y-130.0
X142.5Y-80.0
X143.2Y-117.4
X146.5Y-82.5
X148.0Y-130.0
X148.6Y-117.6
X151.4Y-120.4
X153.6Y-117.8
X154.8Y-123.8
X156.0Y-136.2
X158.0Y-127.0
X158.2Y-117.6
X162.0Y-141.2
X162.6Y-122.8
X162.8Y-127.0
X163.0Y-117.2
X166.0Y-114.0
X169.4Y-142.4
X170.6Y-111.4
X174.8Y-111.6
X178.2Y-142.6
X179.0Y-123.4
X180.6Y-126.2
X181.4Y-111.4
X184.4Y-142.4
X184.6Y-128.8
X186.0Y-111.4
X187.0Y-131.6
X189.8Y-134.4
X191.0Y-111.6
X191.0Y-142.2
X193.2Y-136.8
X197.4Y-137.0
X198.0Y-142.4
X200.6Y-119.6
X202.2Y-137.0
X204.8Y-119.4
X207.2Y-136.8
X207.8Y-142.6
X210.0Y-119.4
X215.4Y-142.6
X218.6Y-111.8
X218.6Y-128.0
X218.8Y-133.0
X220.0Y-140.6
X220.4Y-135.6
X220.8Y-119.0
X220.8Y-123.2
X221.0Y-114.6
T2
X132.6Y-139.25
X133.303Y-137.553
X133.303Y-140.947
X135.0Y-136.85
X135.0Y-141.65
X136.697Y-137.553
X136.697Y-140.947
X137.4Y-139.25
X163.8Y-71.2
X164.503Y-69.503
X164.503Y-72.897
X166.2Y-68.8
X166.2Y-73.6
X167.897Y-69.503
X167.897Y-72.897
X168.6Y-71.2
X184.35Y-119.75
X185.053Y-118.053
X185.053Y-121.447
X186.75Y-117.35
X186.75Y-122.15
X188.447Y-118.053
X188.447Y-121.447
X189.15Y-119.75
X214.85Y-96.0
X215.553Y-94.303
X215.553Y-97.697
X217.25Y-93.6
X217.25Y-98.4
X218.947Y-94.303
X218.947Y-97.697
X219.65Y-96.0
T3
X162.6Y-78.32
X162.6Y-80.86
X162.6Y-83.4
X162.6Y-85.94
X170.22Y-78.32
X170.22Y-80.86
X170.22Y-83.4
X170.22Y-85.94
T4
X146.75Y-75.85
X149.25Y-75.85
X151.75Y-75.85
X154.25Y-75.85
T5
X82.84Y-70.5
X82.84Y-95.9
X85.38Y-70.5
X85.38Y-95.9
X87.92Y-70.5
X87.92Y-95.9
X90.46Y-70.5
X90.46Y-95.9
X93.0Y-70.5
X93.0Y-95.9
X95.54Y-70.5
X95.54Y-95.9
X98.08Y-70.5
X98.08Y-95.9
X100.62Y-70.5
X100.62Y-95.9
X103.16Y-70.5
X103.16Y-95.9
X105.7Y-70.5
X105.7Y-95.9
X108.24Y-70.5
X108.24Y-95.9
X110.78Y-70.5
X110.78Y-95.9
X113.32Y-70.5
X113.32Y-95.9
X115.86Y-70.5
X115.86Y-95.9
X118.4Y-70.5
X118.4Y-95.9
X120.94Y-70.5
X120.94Y-95.9
X123.48Y-70.5
X123.48Y-95.9
X126.02Y-70.5
X126.02Y-95.9
X128.56Y-70.5
X128.56Y-95.9
T6
X152.25Y-132.0
X155.0Y-93.5
X163.0Y-93.5
X163.0Y-132.0
T7
X90.65Y-117.395
X90.65Y-123.745
X90.65Y-130.095
X181.4Y-70.1
X186.4Y-73.9
X191.4Y-70.1
X215.0Y-105.1
X215.0Y-111.45
X215.0Y-117.8
X215.0Y-124.15
X215.0Y-130.5
X215.0Y-136.85
T8
X177.0Y-93.8
X177.0Y-98.88
X177.0Y-111.58
X177.0Y-121.74
X197.0Y-93.8
X197.0Y-98.88
X197.0Y-111.58
X197.0Y-121.74
T9
X135.0Y-139.25
X166.2Y-71.2
X186.75Y-119.75
X217.25Y-96.0
M30
