M48
; DRILL file {KiCad 7.0.1} date Sat May 13 00:12:17 2023
; FORMAT={-:-/ absolute / inch / decimal}
; #@! TF.CreationDate,2023-05-13T00:12:17-05:00
; #@! TF.GenerationSoftware,Kicad,Pcbnew,7.0.1
; #@! TF.FileFunction,MixedPlating,1,2
FMAT,2
INCH
; #@! TA.AperFunction,Plated,PTH,ViaDrill
T1C0.0157
; #@! TA.AperFunction,Plated,PTH,ComponentDrill
T2C0.0374
; #@! TA.AperFunction,Plated,PTH,ComponentDrill
T3C0.0409
; #@! TA.AperFunction,Plated,PTH,ComponentDrill
T4C0.0472
; #@! TA.AperFunction,Plated,PTH,ComponentDrill
T5C0.0512
; #@! TA.AperFunction,Plated,PTH,ComponentDrill
T6C0.0571
%
G90
G05
T1
X5.6102Y-3.1496
X5.7677Y-3.248
T2
X5.7776Y-2.9862
X5.876Y-2.9862
X5.9744Y-2.9862
X6.0728Y-2.9862
T3
X3.2614Y-2.7756
X3.2614Y-3.7756
X3.3614Y-2.7756
X3.3614Y-3.7756
X3.4614Y-2.7756
X3.4614Y-3.7756
X3.5614Y-2.7756
X3.5614Y-3.7756
X3.6614Y-2.7756
X3.6614Y-3.7756
X3.7614Y-2.7756
X3.7614Y-3.7756
X3.8614Y-2.7756
X3.8614Y-3.7756
X3.9614Y-2.7756
X3.9614Y-3.7756
X4.0614Y-2.7756
X4.0614Y-3.7756
X4.1614Y-2.7756
X4.1614Y-3.7756
X4.2614Y-2.7756
X4.2614Y-3.7756
X4.3614Y-2.7756
X4.3614Y-3.7756
X4.4614Y-2.7756
X4.4614Y-3.7756
X4.5614Y-2.7756
X4.5614Y-3.7756
X4.6614Y-2.7756
X4.6614Y-3.7756
X4.7614Y-2.7756
X4.7614Y-3.7756
X4.8614Y-2.7756
X4.8614Y-3.7756
X4.9614Y-2.7756
X4.9614Y-3.7756
X5.0614Y-2.7756
X5.0614Y-3.7756
T4
X5.9941Y-5.1969
X6.1024Y-3.6811
X6.4173Y-3.6811
X6.4173Y-5.1969
T5
X3.5689Y-4.6219
X3.5689Y-4.8719
X3.5689Y-5.1219
X8.4646Y-4.1378
X8.4646Y-4.3878
X8.4646Y-4.6378
X8.4646Y-4.8878
X8.4646Y-5.1378
X8.4646Y-5.3878
T6
X6.9685Y-3.6929
X6.9685Y-3.8929
X6.9685Y-4.3929
X6.9685Y-4.7929
X7.7559Y-3.6929
X7.7559Y-3.8929
X7.7559Y-4.3929
X7.7559Y-4.7929
T0
M30
