%TF.GenerationSoftware,KiCad,Pcbnew,7.0.1*%
%TF.CreationDate,2023-05-13T00:12:20-05:00*%
%TF.ProjectId,sneksafe,736e616b-6574-4656-9d70-2e6b69636164,rev?*%
%TF.SameCoordinates,Original*%
%TF.FileFunction,Soldermask,Bot*%
%TF.FilePolarity,Negative*%
%FSLAX46Y46*%
G04 Gerber Fmt 4.6, Leading zero omitted, Abs format (unit mm)*
G04 Created by KiCad (PCBNEW 7.0.1) date 2023-05-13 00:12:20*
%MOMM*%
%LPD*%
G01*
G04 APERTURE LIST*
G04 Aperture macros list*
%AMRoundRect*
0 Rectangle with rounded corners*
0 $1 Rounding radius*
0 $2 $3 $4 $5 $6 $7 $8 $9 X,Y pos of 4 corners*
0 Add a 4 corners polygon primitive as box body*
4,1,4,$2,$3,$4,$5,$6,$7,$8,$9,$2,$3,0*
0 Add four circle primitives for the rounded corners*
1,1,$1+$1,$2,$3*
1,1,$1+$1,$4,$5*
1,1,$1+$1,$6,$7*
1,1,$1+$1,$8,$9*
0 Add four rect primitives between the rounded corners*
20,1,$1+$1,$2,$3,$4,$5,0*
20,1,$1+$1,$4,$5,$6,$7,0*
20,1,$1+$1,$6,$7,$8,$9,0*
20,1,$1+$1,$8,$9,$2,$3,0*%
G04 Aperture macros list end*
%ADD10C,1.560000*%
%ADD11R,1.560000X1.560000*%
%ADD12C,1.950000*%
%ADD13C,1.800000*%
%ADD14R,1.800000X1.800000*%
%ADD15O,1.700000X1.950000*%
%ADD16RoundRect,0.250000X0.600000X0.725000X-0.600000X0.725000X-0.600000X-0.725000X0.600000X-0.725000X0*%
%ADD17C,2.175000*%
G04 APERTURE END LIST*
D10*
%TO.C,U1*%
X82840000Y-95900000D03*
X85380000Y-95900000D03*
X87920000Y-95900000D03*
X90460000Y-95900000D03*
X93000000Y-95900000D03*
X95540000Y-95900000D03*
X98080000Y-95900000D03*
X100620000Y-95900000D03*
X103160000Y-95900000D03*
X105700000Y-95900000D03*
X108240000Y-95900000D03*
X110780000Y-95900000D03*
X113320000Y-95900000D03*
X115860000Y-95900000D03*
X118400000Y-95900000D03*
X120940000Y-95900000D03*
X123480000Y-95900000D03*
X126020000Y-95900000D03*
X128560000Y-95900000D03*
X82840000Y-70500000D03*
X85380000Y-70500000D03*
X87920000Y-70500000D03*
X90460000Y-70500000D03*
X93000000Y-70500000D03*
X95540000Y-70500000D03*
X98080000Y-70500000D03*
X100620000Y-70500000D03*
X103160000Y-70500000D03*
X105700000Y-70500000D03*
X108240000Y-70500000D03*
X110780000Y-70500000D03*
X113320000Y-70500000D03*
X115860000Y-70500000D03*
X118400000Y-70500000D03*
X120940000Y-70500000D03*
X123480000Y-70500000D03*
X126020000Y-70500000D03*
D11*
X128560000Y-70500000D03*
%TD*%
D12*
%TO.C,J2*%
X215000000Y-136850000D03*
X215000000Y-130500000D03*
X215000000Y-124150000D03*
X215000000Y-117800000D03*
X215000000Y-111450000D03*
X215000000Y-105100000D03*
%TD*%
D13*
%TO.C,PS1*%
X155000000Y-93500000D03*
X163000000Y-93500000D03*
X163000000Y-132000000D03*
D14*
X152250000Y-132000000D03*
%TD*%
D15*
%TO.C,J1*%
X146750000Y-75850000D03*
X149250000Y-75850000D03*
X151750000Y-75850000D03*
D16*
X154250000Y-75850000D03*
%TD*%
D17*
%TO.C,K1*%
X177000000Y-93800000D03*
X177000000Y-98880000D03*
X177000000Y-111580000D03*
X177000000Y-121740000D03*
%TD*%
D12*
%TO.C,J3*%
X90650000Y-117395000D03*
X90650000Y-123745000D03*
X90650000Y-130095000D03*
%TD*%
D17*
%TO.C,K2*%
X197000000Y-93800000D03*
X197000000Y-98880000D03*
X197000000Y-111580000D03*
X197000000Y-121740000D03*
%TD*%
M02*
