%TF.GenerationSoftware,KiCad,Pcbnew,7.0.1*%
%TF.CreationDate,2023-05-13T00:12:20-05:00*%
%TF.ProjectId,sneksafe,736e616b-6574-4656-9d70-2e6b69636164,rev?*%
%TF.SameCoordinates,Original*%
%TF.FileFunction,Soldermask,Top*%
%TF.FilePolarity,Negative*%
%FSLAX46Y46*%
G04 Gerber Fmt 4.6, Leading zero omitted, Abs format (unit mm)*
G04 Created by KiCad (PCBNEW 7.0.1) date 2023-05-13 00:12:20*
%MOMM*%
%LPD*%
G01*
G04 APERTURE LIST*
G04 Aperture macros list*
%AMRoundRect*
0 Rectangle with rounded corners*
0 $1 Rounding radius*
0 $2 $3 $4 $5 $6 $7 $8 $9 X,Y pos of 4 corners*
0 Add a 4 corners polygon primitive as box body*
4,1,4,$2,$3,$4,$5,$6,$7,$8,$9,$2,$3,0*
0 Add four circle primitives for the rounded corners*
1,1,$1+$1,$2,$3*
1,1,$1+$1,$4,$5*
1,1,$1+$1,$6,$7*
1,1,$1+$1,$8,$9*
0 Add four rect primitives between the rounded corners*
20,1,$1+$1,$2,$3,$4,$5,0*
20,1,$1+$1,$4,$5,$6,$7,0*
20,1,$1+$1,$6,$7,$8,$9,0*
20,1,$1+$1,$8,$9,$2,$3,0*%
G04 Aperture macros list end*
%ADD10C,0.300000*%
%ADD11RoundRect,0.250000X0.625000X-0.400000X0.625000X0.400000X-0.625000X0.400000X-0.625000X-0.400000X0*%
%ADD12C,1.560000*%
%ADD13R,1.560000X1.560000*%
%ADD14RoundRect,0.250000X-0.625000X0.400000X-0.625000X-0.400000X0.625000X-0.400000X0.625000X0.400000X0*%
%ADD15C,1.950000*%
%ADD16C,1.800000*%
%ADD17R,1.800000X1.800000*%
%ADD18O,1.700000X1.950000*%
%ADD19RoundRect,0.250000X0.600000X0.725000X-0.600000X0.725000X-0.600000X-0.725000X0.600000X-0.725000X0*%
%ADD20C,2.175000*%
%ADD21RoundRect,0.250000X-0.650000X0.412500X-0.650000X-0.412500X0.650000X-0.412500X0.650000X0.412500X0*%
G04 APERTURE END LIST*
D10*
X83285714Y-138745000D02*
X83500000Y-138816428D01*
X83500000Y-138816428D02*
X83857142Y-138816428D01*
X83857142Y-138816428D02*
X84000000Y-138745000D01*
X84000000Y-138745000D02*
X84071428Y-138673571D01*
X84071428Y-138673571D02*
X84142857Y-138530714D01*
X84142857Y-138530714D02*
X84142857Y-138387857D01*
X84142857Y-138387857D02*
X84071428Y-138245000D01*
X84071428Y-138245000D02*
X84000000Y-138173571D01*
X84000000Y-138173571D02*
X83857142Y-138102142D01*
X83857142Y-138102142D02*
X83571428Y-138030714D01*
X83571428Y-138030714D02*
X83428571Y-137959285D01*
X83428571Y-137959285D02*
X83357142Y-137887857D01*
X83357142Y-137887857D02*
X83285714Y-137745000D01*
X83285714Y-137745000D02*
X83285714Y-137602142D01*
X83285714Y-137602142D02*
X83357142Y-137459285D01*
X83357142Y-137459285D02*
X83428571Y-137387857D01*
X83428571Y-137387857D02*
X83571428Y-137316428D01*
X83571428Y-137316428D02*
X83928571Y-137316428D01*
X83928571Y-137316428D02*
X84142857Y-137387857D01*
X84785713Y-137816428D02*
X84785713Y-138816428D01*
X84785713Y-137959285D02*
X84857142Y-137887857D01*
X84857142Y-137887857D02*
X84999999Y-137816428D01*
X84999999Y-137816428D02*
X85214285Y-137816428D01*
X85214285Y-137816428D02*
X85357142Y-137887857D01*
X85357142Y-137887857D02*
X85428571Y-138030714D01*
X85428571Y-138030714D02*
X85428571Y-138816428D01*
X86714285Y-138745000D02*
X86571428Y-138816428D01*
X86571428Y-138816428D02*
X86285714Y-138816428D01*
X86285714Y-138816428D02*
X86142856Y-138745000D01*
X86142856Y-138745000D02*
X86071428Y-138602142D01*
X86071428Y-138602142D02*
X86071428Y-138030714D01*
X86071428Y-138030714D02*
X86142856Y-137887857D01*
X86142856Y-137887857D02*
X86285714Y-137816428D01*
X86285714Y-137816428D02*
X86571428Y-137816428D01*
X86571428Y-137816428D02*
X86714285Y-137887857D01*
X86714285Y-137887857D02*
X86785714Y-138030714D01*
X86785714Y-138030714D02*
X86785714Y-138173571D01*
X86785714Y-138173571D02*
X86071428Y-138316428D01*
X87428570Y-138816428D02*
X87428570Y-137316428D01*
X87571428Y-138245000D02*
X87999999Y-138816428D01*
X87999999Y-137816428D02*
X87428570Y-138387857D01*
X88571428Y-138745000D02*
X88785714Y-138816428D01*
X88785714Y-138816428D02*
X89142856Y-138816428D01*
X89142856Y-138816428D02*
X89285714Y-138745000D01*
X89285714Y-138745000D02*
X89357142Y-138673571D01*
X89357142Y-138673571D02*
X89428571Y-138530714D01*
X89428571Y-138530714D02*
X89428571Y-138387857D01*
X89428571Y-138387857D02*
X89357142Y-138245000D01*
X89357142Y-138245000D02*
X89285714Y-138173571D01*
X89285714Y-138173571D02*
X89142856Y-138102142D01*
X89142856Y-138102142D02*
X88857142Y-138030714D01*
X88857142Y-138030714D02*
X88714285Y-137959285D01*
X88714285Y-137959285D02*
X88642856Y-137887857D01*
X88642856Y-137887857D02*
X88571428Y-137745000D01*
X88571428Y-137745000D02*
X88571428Y-137602142D01*
X88571428Y-137602142D02*
X88642856Y-137459285D01*
X88642856Y-137459285D02*
X88714285Y-137387857D01*
X88714285Y-137387857D02*
X88857142Y-137316428D01*
X88857142Y-137316428D02*
X89214285Y-137316428D01*
X89214285Y-137316428D02*
X89428571Y-137387857D01*
X90714285Y-138816428D02*
X90714285Y-138030714D01*
X90714285Y-138030714D02*
X90642856Y-137887857D01*
X90642856Y-137887857D02*
X90499999Y-137816428D01*
X90499999Y-137816428D02*
X90214285Y-137816428D01*
X90214285Y-137816428D02*
X90071427Y-137887857D01*
X90714285Y-138745000D02*
X90571427Y-138816428D01*
X90571427Y-138816428D02*
X90214285Y-138816428D01*
X90214285Y-138816428D02*
X90071427Y-138745000D01*
X90071427Y-138745000D02*
X89999999Y-138602142D01*
X89999999Y-138602142D02*
X89999999Y-138459285D01*
X89999999Y-138459285D02*
X90071427Y-138316428D01*
X90071427Y-138316428D02*
X90214285Y-138245000D01*
X90214285Y-138245000D02*
X90571427Y-138245000D01*
X90571427Y-138245000D02*
X90714285Y-138173571D01*
X91214285Y-137816428D02*
X91785713Y-137816428D01*
X91428570Y-138816428D02*
X91428570Y-137530714D01*
X91428570Y-137530714D02*
X91499999Y-137387857D01*
X91499999Y-137387857D02*
X91642856Y-137316428D01*
X91642856Y-137316428D02*
X91785713Y-137316428D01*
X92857142Y-138745000D02*
X92714285Y-138816428D01*
X92714285Y-138816428D02*
X92428571Y-138816428D01*
X92428571Y-138816428D02*
X92285713Y-138745000D01*
X92285713Y-138745000D02*
X92214285Y-138602142D01*
X92214285Y-138602142D02*
X92214285Y-138030714D01*
X92214285Y-138030714D02*
X92285713Y-137887857D01*
X92285713Y-137887857D02*
X92428571Y-137816428D01*
X92428571Y-137816428D02*
X92714285Y-137816428D01*
X92714285Y-137816428D02*
X92857142Y-137887857D01*
X92857142Y-137887857D02*
X92928571Y-138030714D01*
X92928571Y-138030714D02*
X92928571Y-138173571D01*
X92928571Y-138173571D02*
X92214285Y-138316428D01*
X94571427Y-137816428D02*
X94928570Y-138816428D01*
X94928570Y-138816428D02*
X95285713Y-137816428D01*
X96642856Y-138816428D02*
X95785713Y-138816428D01*
X96214284Y-138816428D02*
X96214284Y-137316428D01*
X96214284Y-137316428D02*
X96071427Y-137530714D01*
X96071427Y-137530714D02*
X95928570Y-137673571D01*
X95928570Y-137673571D02*
X95785713Y-137745000D01*
X97285712Y-138673571D02*
X97357141Y-138745000D01*
X97357141Y-138745000D02*
X97285712Y-138816428D01*
X97285712Y-138816428D02*
X97214284Y-138745000D01*
X97214284Y-138745000D02*
X97285712Y-138673571D01*
X97285712Y-138673571D02*
X97285712Y-138816428D01*
X98285713Y-137316428D02*
X98428570Y-137316428D01*
X98428570Y-137316428D02*
X98571427Y-137387857D01*
X98571427Y-137387857D02*
X98642856Y-137459285D01*
X98642856Y-137459285D02*
X98714284Y-137602142D01*
X98714284Y-137602142D02*
X98785713Y-137887857D01*
X98785713Y-137887857D02*
X98785713Y-138245000D01*
X98785713Y-138245000D02*
X98714284Y-138530714D01*
X98714284Y-138530714D02*
X98642856Y-138673571D01*
X98642856Y-138673571D02*
X98571427Y-138745000D01*
X98571427Y-138745000D02*
X98428570Y-138816428D01*
X98428570Y-138816428D02*
X98285713Y-138816428D01*
X98285713Y-138816428D02*
X98142856Y-138745000D01*
X98142856Y-138745000D02*
X98071427Y-138673571D01*
X98071427Y-138673571D02*
X97999998Y-138530714D01*
X97999998Y-138530714D02*
X97928570Y-138245000D01*
X97928570Y-138245000D02*
X97928570Y-137887857D01*
X97928570Y-137887857D02*
X97999998Y-137602142D01*
X97999998Y-137602142D02*
X98071427Y-137459285D01*
X98071427Y-137459285D02*
X98142856Y-137387857D01*
X98142856Y-137387857D02*
X98285713Y-137316428D01*
X84214285Y-141673571D02*
X84142857Y-141745000D01*
X84142857Y-141745000D02*
X83928571Y-141816428D01*
X83928571Y-141816428D02*
X83785714Y-141816428D01*
X83785714Y-141816428D02*
X83571428Y-141745000D01*
X83571428Y-141745000D02*
X83428571Y-141602142D01*
X83428571Y-141602142D02*
X83357142Y-141459285D01*
X83357142Y-141459285D02*
X83285714Y-141173571D01*
X83285714Y-141173571D02*
X83285714Y-140959285D01*
X83285714Y-140959285D02*
X83357142Y-140673571D01*
X83357142Y-140673571D02*
X83428571Y-140530714D01*
X83428571Y-140530714D02*
X83571428Y-140387857D01*
X83571428Y-140387857D02*
X83785714Y-140316428D01*
X83785714Y-140316428D02*
X83928571Y-140316428D01*
X83928571Y-140316428D02*
X84142857Y-140387857D01*
X84142857Y-140387857D02*
X84214285Y-140459285D01*
X85071428Y-141816428D02*
X84928571Y-141745000D01*
X84928571Y-141745000D02*
X84857142Y-141673571D01*
X84857142Y-141673571D02*
X84785714Y-141530714D01*
X84785714Y-141530714D02*
X84785714Y-141102142D01*
X84785714Y-141102142D02*
X84857142Y-140959285D01*
X84857142Y-140959285D02*
X84928571Y-140887857D01*
X84928571Y-140887857D02*
X85071428Y-140816428D01*
X85071428Y-140816428D02*
X85285714Y-140816428D01*
X85285714Y-140816428D02*
X85428571Y-140887857D01*
X85428571Y-140887857D02*
X85500000Y-140959285D01*
X85500000Y-140959285D02*
X85571428Y-141102142D01*
X85571428Y-141102142D02*
X85571428Y-141530714D01*
X85571428Y-141530714D02*
X85500000Y-141673571D01*
X85500000Y-141673571D02*
X85428571Y-141745000D01*
X85428571Y-141745000D02*
X85285714Y-141816428D01*
X85285714Y-141816428D02*
X85071428Y-141816428D01*
X86214285Y-140816428D02*
X86214285Y-142316428D01*
X86214285Y-140887857D02*
X86357143Y-140816428D01*
X86357143Y-140816428D02*
X86642857Y-140816428D01*
X86642857Y-140816428D02*
X86785714Y-140887857D01*
X86785714Y-140887857D02*
X86857143Y-140959285D01*
X86857143Y-140959285D02*
X86928571Y-141102142D01*
X86928571Y-141102142D02*
X86928571Y-141530714D01*
X86928571Y-141530714D02*
X86857143Y-141673571D01*
X86857143Y-141673571D02*
X86785714Y-141745000D01*
X86785714Y-141745000D02*
X86642857Y-141816428D01*
X86642857Y-141816428D02*
X86357143Y-141816428D01*
X86357143Y-141816428D02*
X86214285Y-141745000D01*
X87428571Y-140816428D02*
X87785714Y-141816428D01*
X88142857Y-140816428D02*
X87785714Y-141816428D01*
X87785714Y-141816428D02*
X87642857Y-142173571D01*
X87642857Y-142173571D02*
X87571428Y-142245000D01*
X87571428Y-142245000D02*
X87428571Y-142316428D01*
X88714285Y-141816428D02*
X88714285Y-140816428D01*
X88714285Y-141102142D02*
X88785714Y-140959285D01*
X88785714Y-140959285D02*
X88857143Y-140887857D01*
X88857143Y-140887857D02*
X89000000Y-140816428D01*
X89000000Y-140816428D02*
X89142857Y-140816428D01*
X89642856Y-141816428D02*
X89642856Y-140816428D01*
X89642856Y-140316428D02*
X89571428Y-140387857D01*
X89571428Y-140387857D02*
X89642856Y-140459285D01*
X89642856Y-140459285D02*
X89714285Y-140387857D01*
X89714285Y-140387857D02*
X89642856Y-140316428D01*
X89642856Y-140316428D02*
X89642856Y-140459285D01*
X91000000Y-140816428D02*
X91000000Y-142030714D01*
X91000000Y-142030714D02*
X90928571Y-142173571D01*
X90928571Y-142173571D02*
X90857142Y-142245000D01*
X90857142Y-142245000D02*
X90714285Y-142316428D01*
X90714285Y-142316428D02*
X90500000Y-142316428D01*
X90500000Y-142316428D02*
X90357142Y-142245000D01*
X91000000Y-141745000D02*
X90857142Y-141816428D01*
X90857142Y-141816428D02*
X90571428Y-141816428D01*
X90571428Y-141816428D02*
X90428571Y-141745000D01*
X90428571Y-141745000D02*
X90357142Y-141673571D01*
X90357142Y-141673571D02*
X90285714Y-141530714D01*
X90285714Y-141530714D02*
X90285714Y-141102142D01*
X90285714Y-141102142D02*
X90357142Y-140959285D01*
X90357142Y-140959285D02*
X90428571Y-140887857D01*
X90428571Y-140887857D02*
X90571428Y-140816428D01*
X90571428Y-140816428D02*
X90857142Y-140816428D01*
X90857142Y-140816428D02*
X91000000Y-140887857D01*
X91714285Y-141816428D02*
X91714285Y-140316428D01*
X92357143Y-141816428D02*
X92357143Y-141030714D01*
X92357143Y-141030714D02*
X92285714Y-140887857D01*
X92285714Y-140887857D02*
X92142857Y-140816428D01*
X92142857Y-140816428D02*
X91928571Y-140816428D01*
X91928571Y-140816428D02*
X91785714Y-140887857D01*
X91785714Y-140887857D02*
X91714285Y-140959285D01*
X92857143Y-140816428D02*
X93428571Y-140816428D01*
X93071428Y-140316428D02*
X93071428Y-141602142D01*
X93071428Y-141602142D02*
X93142857Y-141745000D01*
X93142857Y-141745000D02*
X93285714Y-141816428D01*
X93285714Y-141816428D02*
X93428571Y-141816428D01*
X96285714Y-140673571D02*
X96142857Y-140602142D01*
X96142857Y-140602142D02*
X95857143Y-140602142D01*
X95857143Y-140602142D02*
X95714286Y-140673571D01*
X95714286Y-140673571D02*
X95571428Y-140816428D01*
X95571428Y-140816428D02*
X95500000Y-140959285D01*
X95500000Y-140959285D02*
X95500000Y-141245000D01*
X95500000Y-141245000D02*
X95571428Y-141387857D01*
X95571428Y-141387857D02*
X95714286Y-141530714D01*
X95714286Y-141530714D02*
X95857143Y-141602142D01*
X95857143Y-141602142D02*
X96142857Y-141602142D01*
X96142857Y-141602142D02*
X96285714Y-141530714D01*
X96000000Y-140102142D02*
X95642857Y-140173571D01*
X95642857Y-140173571D02*
X95285714Y-140387857D01*
X95285714Y-140387857D02*
X95071428Y-140745000D01*
X95071428Y-140745000D02*
X95000000Y-141102142D01*
X95000000Y-141102142D02*
X95071428Y-141459285D01*
X95071428Y-141459285D02*
X95285714Y-141816428D01*
X95285714Y-141816428D02*
X95642857Y-142030714D01*
X95642857Y-142030714D02*
X96000000Y-142102142D01*
X96000000Y-142102142D02*
X96357143Y-142030714D01*
X96357143Y-142030714D02*
X96714286Y-141816428D01*
X96714286Y-141816428D02*
X96928571Y-141459285D01*
X96928571Y-141459285D02*
X97000000Y-141102142D01*
X97000000Y-141102142D02*
X96928571Y-140745000D01*
X96928571Y-140745000D02*
X96714286Y-140387857D01*
X96714286Y-140387857D02*
X96357143Y-140173571D01*
X96357143Y-140173571D02*
X96000000Y-140102142D01*
X98714286Y-140459285D02*
X98785714Y-140387857D01*
X98785714Y-140387857D02*
X98928572Y-140316428D01*
X98928572Y-140316428D02*
X99285714Y-140316428D01*
X99285714Y-140316428D02*
X99428572Y-140387857D01*
X99428572Y-140387857D02*
X99500000Y-140459285D01*
X99500000Y-140459285D02*
X99571429Y-140602142D01*
X99571429Y-140602142D02*
X99571429Y-140745000D01*
X99571429Y-140745000D02*
X99500000Y-140959285D01*
X99500000Y-140959285D02*
X98642857Y-141816428D01*
X98642857Y-141816428D02*
X99571429Y-141816428D01*
X100500000Y-140316428D02*
X100642857Y-140316428D01*
X100642857Y-140316428D02*
X100785714Y-140387857D01*
X100785714Y-140387857D02*
X100857143Y-140459285D01*
X100857143Y-140459285D02*
X100928571Y-140602142D01*
X100928571Y-140602142D02*
X101000000Y-140887857D01*
X101000000Y-140887857D02*
X101000000Y-141245000D01*
X101000000Y-141245000D02*
X100928571Y-141530714D01*
X100928571Y-141530714D02*
X100857143Y-141673571D01*
X100857143Y-141673571D02*
X100785714Y-141745000D01*
X100785714Y-141745000D02*
X100642857Y-141816428D01*
X100642857Y-141816428D02*
X100500000Y-141816428D01*
X100500000Y-141816428D02*
X100357143Y-141745000D01*
X100357143Y-141745000D02*
X100285714Y-141673571D01*
X100285714Y-141673571D02*
X100214285Y-141530714D01*
X100214285Y-141530714D02*
X100142857Y-141245000D01*
X100142857Y-141245000D02*
X100142857Y-140887857D01*
X100142857Y-140887857D02*
X100214285Y-140602142D01*
X100214285Y-140602142D02*
X100285714Y-140459285D01*
X100285714Y-140459285D02*
X100357143Y-140387857D01*
X100357143Y-140387857D02*
X100500000Y-140316428D01*
X102428571Y-141816428D02*
X101571428Y-141816428D01*
X101999999Y-141816428D02*
X101999999Y-140316428D01*
X101999999Y-140316428D02*
X101857142Y-140530714D01*
X101857142Y-140530714D02*
X101714285Y-140673571D01*
X101714285Y-140673571D02*
X101571428Y-140745000D01*
X103285713Y-140959285D02*
X103142856Y-140887857D01*
X103142856Y-140887857D02*
X103071427Y-140816428D01*
X103071427Y-140816428D02*
X102999999Y-140673571D01*
X102999999Y-140673571D02*
X102999999Y-140602142D01*
X102999999Y-140602142D02*
X103071427Y-140459285D01*
X103071427Y-140459285D02*
X103142856Y-140387857D01*
X103142856Y-140387857D02*
X103285713Y-140316428D01*
X103285713Y-140316428D02*
X103571427Y-140316428D01*
X103571427Y-140316428D02*
X103714285Y-140387857D01*
X103714285Y-140387857D02*
X103785713Y-140459285D01*
X103785713Y-140459285D02*
X103857142Y-140602142D01*
X103857142Y-140602142D02*
X103857142Y-140673571D01*
X103857142Y-140673571D02*
X103785713Y-140816428D01*
X103785713Y-140816428D02*
X103714285Y-140887857D01*
X103714285Y-140887857D02*
X103571427Y-140959285D01*
X103571427Y-140959285D02*
X103285713Y-140959285D01*
X103285713Y-140959285D02*
X103142856Y-141030714D01*
X103142856Y-141030714D02*
X103071427Y-141102142D01*
X103071427Y-141102142D02*
X102999999Y-141245000D01*
X102999999Y-141245000D02*
X102999999Y-141530714D01*
X102999999Y-141530714D02*
X103071427Y-141673571D01*
X103071427Y-141673571D02*
X103142856Y-141745000D01*
X103142856Y-141745000D02*
X103285713Y-141816428D01*
X103285713Y-141816428D02*
X103571427Y-141816428D01*
X103571427Y-141816428D02*
X103714285Y-141745000D01*
X103714285Y-141745000D02*
X103785713Y-141673571D01*
X103785713Y-141673571D02*
X103857142Y-141530714D01*
X103857142Y-141530714D02*
X103857142Y-141245000D01*
X103857142Y-141245000D02*
X103785713Y-141102142D01*
X103785713Y-141102142D02*
X103714285Y-141030714D01*
X103714285Y-141030714D02*
X103571427Y-140959285D01*
X104499998Y-141245000D02*
X105642856Y-141245000D01*
X106285713Y-140459285D02*
X106357141Y-140387857D01*
X106357141Y-140387857D02*
X106499999Y-140316428D01*
X106499999Y-140316428D02*
X106857141Y-140316428D01*
X106857141Y-140316428D02*
X106999999Y-140387857D01*
X106999999Y-140387857D02*
X107071427Y-140459285D01*
X107071427Y-140459285D02*
X107142856Y-140602142D01*
X107142856Y-140602142D02*
X107142856Y-140745000D01*
X107142856Y-140745000D02*
X107071427Y-140959285D01*
X107071427Y-140959285D02*
X106214284Y-141816428D01*
X106214284Y-141816428D02*
X107142856Y-141816428D01*
X108071427Y-140316428D02*
X108214284Y-140316428D01*
X108214284Y-140316428D02*
X108357141Y-140387857D01*
X108357141Y-140387857D02*
X108428570Y-140459285D01*
X108428570Y-140459285D02*
X108499998Y-140602142D01*
X108499998Y-140602142D02*
X108571427Y-140887857D01*
X108571427Y-140887857D02*
X108571427Y-141245000D01*
X108571427Y-141245000D02*
X108499998Y-141530714D01*
X108499998Y-141530714D02*
X108428570Y-141673571D01*
X108428570Y-141673571D02*
X108357141Y-141745000D01*
X108357141Y-141745000D02*
X108214284Y-141816428D01*
X108214284Y-141816428D02*
X108071427Y-141816428D01*
X108071427Y-141816428D02*
X107928570Y-141745000D01*
X107928570Y-141745000D02*
X107857141Y-141673571D01*
X107857141Y-141673571D02*
X107785712Y-141530714D01*
X107785712Y-141530714D02*
X107714284Y-141245000D01*
X107714284Y-141245000D02*
X107714284Y-140887857D01*
X107714284Y-140887857D02*
X107785712Y-140602142D01*
X107785712Y-140602142D02*
X107857141Y-140459285D01*
X107857141Y-140459285D02*
X107928570Y-140387857D01*
X107928570Y-140387857D02*
X108071427Y-140316428D01*
X109142855Y-140459285D02*
X109214283Y-140387857D01*
X109214283Y-140387857D02*
X109357141Y-140316428D01*
X109357141Y-140316428D02*
X109714283Y-140316428D01*
X109714283Y-140316428D02*
X109857141Y-140387857D01*
X109857141Y-140387857D02*
X109928569Y-140459285D01*
X109928569Y-140459285D02*
X109999998Y-140602142D01*
X109999998Y-140602142D02*
X109999998Y-140745000D01*
X109999998Y-140745000D02*
X109928569Y-140959285D01*
X109928569Y-140959285D02*
X109071426Y-141816428D01*
X109071426Y-141816428D02*
X109999998Y-141816428D01*
X110499997Y-140316428D02*
X111428569Y-140316428D01*
X111428569Y-140316428D02*
X110928569Y-140887857D01*
X110928569Y-140887857D02*
X111142854Y-140887857D01*
X111142854Y-140887857D02*
X111285712Y-140959285D01*
X111285712Y-140959285D02*
X111357140Y-141030714D01*
X111357140Y-141030714D02*
X111428569Y-141173571D01*
X111428569Y-141173571D02*
X111428569Y-141530714D01*
X111428569Y-141530714D02*
X111357140Y-141673571D01*
X111357140Y-141673571D02*
X111285712Y-141745000D01*
X111285712Y-141745000D02*
X111142854Y-141816428D01*
X111142854Y-141816428D02*
X110714283Y-141816428D01*
X110714283Y-141816428D02*
X110571426Y-141745000D01*
X110571426Y-141745000D02*
X110499997Y-141673571D01*
X113642854Y-140316428D02*
X113642854Y-141387857D01*
X113642854Y-141387857D02*
X113571425Y-141602142D01*
X113571425Y-141602142D02*
X113428568Y-141745000D01*
X113428568Y-141745000D02*
X113214282Y-141816428D01*
X113214282Y-141816428D02*
X113071425Y-141816428D01*
X114999997Y-141816428D02*
X114999997Y-141030714D01*
X114999997Y-141030714D02*
X114928568Y-140887857D01*
X114928568Y-140887857D02*
X114785711Y-140816428D01*
X114785711Y-140816428D02*
X114499997Y-140816428D01*
X114499997Y-140816428D02*
X114357139Y-140887857D01*
X114999997Y-141745000D02*
X114857139Y-141816428D01*
X114857139Y-141816428D02*
X114499997Y-141816428D01*
X114499997Y-141816428D02*
X114357139Y-141745000D01*
X114357139Y-141745000D02*
X114285711Y-141602142D01*
X114285711Y-141602142D02*
X114285711Y-141459285D01*
X114285711Y-141459285D02*
X114357139Y-141316428D01*
X114357139Y-141316428D02*
X114499997Y-141245000D01*
X114499997Y-141245000D02*
X114857139Y-141245000D01*
X114857139Y-141245000D02*
X114999997Y-141173571D01*
X116357140Y-141745000D02*
X116214282Y-141816428D01*
X116214282Y-141816428D02*
X115928568Y-141816428D01*
X115928568Y-141816428D02*
X115785711Y-141745000D01*
X115785711Y-141745000D02*
X115714282Y-141673571D01*
X115714282Y-141673571D02*
X115642854Y-141530714D01*
X115642854Y-141530714D02*
X115642854Y-141102142D01*
X115642854Y-141102142D02*
X115714282Y-140959285D01*
X115714282Y-140959285D02*
X115785711Y-140887857D01*
X115785711Y-140887857D02*
X115928568Y-140816428D01*
X115928568Y-140816428D02*
X116214282Y-140816428D01*
X116214282Y-140816428D02*
X116357140Y-140887857D01*
X117214282Y-141816428D02*
X117071425Y-141745000D01*
X117071425Y-141745000D02*
X116999996Y-141673571D01*
X116999996Y-141673571D02*
X116928568Y-141530714D01*
X116928568Y-141530714D02*
X116928568Y-141102142D01*
X116928568Y-141102142D02*
X116999996Y-140959285D01*
X116999996Y-140959285D02*
X117071425Y-140887857D01*
X117071425Y-140887857D02*
X117214282Y-140816428D01*
X117214282Y-140816428D02*
X117428568Y-140816428D01*
X117428568Y-140816428D02*
X117571425Y-140887857D01*
X117571425Y-140887857D02*
X117642854Y-140959285D01*
X117642854Y-140959285D02*
X117714282Y-141102142D01*
X117714282Y-141102142D02*
X117714282Y-141530714D01*
X117714282Y-141530714D02*
X117642854Y-141673571D01*
X117642854Y-141673571D02*
X117571425Y-141745000D01*
X117571425Y-141745000D02*
X117428568Y-141816428D01*
X117428568Y-141816428D02*
X117214282Y-141816428D01*
X118357139Y-141816428D02*
X118357139Y-140316428D01*
X118357139Y-140887857D02*
X118499997Y-140816428D01*
X118499997Y-140816428D02*
X118785711Y-140816428D01*
X118785711Y-140816428D02*
X118928568Y-140887857D01*
X118928568Y-140887857D02*
X118999997Y-140959285D01*
X118999997Y-140959285D02*
X119071425Y-141102142D01*
X119071425Y-141102142D02*
X119071425Y-141530714D01*
X119071425Y-141530714D02*
X118999997Y-141673571D01*
X118999997Y-141673571D02*
X118928568Y-141745000D01*
X118928568Y-141745000D02*
X118785711Y-141816428D01*
X118785711Y-141816428D02*
X118499997Y-141816428D01*
X118499997Y-141816428D02*
X118357139Y-141745000D01*
X120857139Y-141816428D02*
X120857139Y-140316428D01*
X120857139Y-140316428D02*
X121357139Y-141387857D01*
X121357139Y-141387857D02*
X121857139Y-140316428D01*
X121857139Y-140316428D02*
X121857139Y-141816428D01*
X123214283Y-141745000D02*
X123071425Y-141816428D01*
X123071425Y-141816428D02*
X122785711Y-141816428D01*
X122785711Y-141816428D02*
X122642854Y-141745000D01*
X122642854Y-141745000D02*
X122571425Y-141673571D01*
X122571425Y-141673571D02*
X122499997Y-141530714D01*
X122499997Y-141530714D02*
X122499997Y-141102142D01*
X122499997Y-141102142D02*
X122571425Y-140959285D01*
X122571425Y-140959285D02*
X122642854Y-140887857D01*
X122642854Y-140887857D02*
X122785711Y-140816428D01*
X122785711Y-140816428D02*
X123071425Y-140816428D01*
X123071425Y-140816428D02*
X123214283Y-140887857D01*
X123785711Y-141745000D02*
X123999997Y-141816428D01*
X123999997Y-141816428D02*
X124357139Y-141816428D01*
X124357139Y-141816428D02*
X124499997Y-141745000D01*
X124499997Y-141745000D02*
X124571425Y-141673571D01*
X124571425Y-141673571D02*
X124642854Y-141530714D01*
X124642854Y-141530714D02*
X124642854Y-141387857D01*
X124642854Y-141387857D02*
X124571425Y-141245000D01*
X124571425Y-141245000D02*
X124499997Y-141173571D01*
X124499997Y-141173571D02*
X124357139Y-141102142D01*
X124357139Y-141102142D02*
X124071425Y-141030714D01*
X124071425Y-141030714D02*
X123928568Y-140959285D01*
X123928568Y-140959285D02*
X123857139Y-140887857D01*
X123857139Y-140887857D02*
X123785711Y-140745000D01*
X123785711Y-140745000D02*
X123785711Y-140602142D01*
X123785711Y-140602142D02*
X123857139Y-140459285D01*
X123857139Y-140459285D02*
X123928568Y-140387857D01*
X123928568Y-140387857D02*
X124071425Y-140316428D01*
X124071425Y-140316428D02*
X124428568Y-140316428D01*
X124428568Y-140316428D02*
X124642854Y-140387857D01*
X125142853Y-140816428D02*
X125428568Y-141816428D01*
X125428568Y-141816428D02*
X125714282Y-141102142D01*
X125714282Y-141102142D02*
X125999996Y-141816428D01*
X125999996Y-141816428D02*
X126285710Y-140816428D01*
X127499997Y-141816428D02*
X127499997Y-141030714D01*
X127499997Y-141030714D02*
X127428568Y-140887857D01*
X127428568Y-140887857D02*
X127285711Y-140816428D01*
X127285711Y-140816428D02*
X126999997Y-140816428D01*
X126999997Y-140816428D02*
X126857139Y-140887857D01*
X127499997Y-141745000D02*
X127357139Y-141816428D01*
X127357139Y-141816428D02*
X126999997Y-141816428D01*
X126999997Y-141816428D02*
X126857139Y-141745000D01*
X126857139Y-141745000D02*
X126785711Y-141602142D01*
X126785711Y-141602142D02*
X126785711Y-141459285D01*
X126785711Y-141459285D02*
X126857139Y-141316428D01*
X126857139Y-141316428D02*
X126999997Y-141245000D01*
X126999997Y-141245000D02*
X127357139Y-141245000D01*
X127357139Y-141245000D02*
X127499997Y-141173571D01*
X128214282Y-141816428D02*
X128214282Y-140816428D01*
X128214282Y-140316428D02*
X128142854Y-140387857D01*
X128142854Y-140387857D02*
X128214282Y-140459285D01*
X128214282Y-140459285D02*
X128285711Y-140387857D01*
X128285711Y-140387857D02*
X128214282Y-140316428D01*
X128214282Y-140316428D02*
X128214282Y-140459285D01*
X128928568Y-140816428D02*
X128928568Y-141816428D01*
X128928568Y-140959285D02*
X128999997Y-140887857D01*
X128999997Y-140887857D02*
X129142854Y-140816428D01*
X129142854Y-140816428D02*
X129357140Y-140816428D01*
X129357140Y-140816428D02*
X129499997Y-140887857D01*
X129499997Y-140887857D02*
X129571426Y-141030714D01*
X129571426Y-141030714D02*
X129571426Y-141816428D01*
D11*
%TO.C,R1*%
X142500000Y-81450000D03*
X142500000Y-84550000D03*
%TD*%
%TO.C,R2*%
X146500000Y-83950000D03*
X146500000Y-87050000D03*
%TD*%
D12*
%TO.C,U1*%
X82840000Y-95900000D03*
X85380000Y-95900000D03*
X87920000Y-95900000D03*
X90460000Y-95900000D03*
X93000000Y-95900000D03*
X95540000Y-95900000D03*
X98080000Y-95900000D03*
X100620000Y-95900000D03*
X103160000Y-95900000D03*
X105700000Y-95900000D03*
X108240000Y-95900000D03*
X110780000Y-95900000D03*
X113320000Y-95900000D03*
X115860000Y-95900000D03*
X118400000Y-95900000D03*
X120940000Y-95900000D03*
X123480000Y-95900000D03*
X126020000Y-95900000D03*
X128560000Y-95900000D03*
X82840000Y-70500000D03*
X85380000Y-70500000D03*
X87920000Y-70500000D03*
X90460000Y-70500000D03*
X93000000Y-70500000D03*
X95540000Y-70500000D03*
X98080000Y-70500000D03*
X100620000Y-70500000D03*
X103160000Y-70500000D03*
X105700000Y-70500000D03*
X108240000Y-70500000D03*
X110780000Y-70500000D03*
X113320000Y-70500000D03*
X115860000Y-70500000D03*
X118400000Y-70500000D03*
X120940000Y-70500000D03*
X123480000Y-70500000D03*
X126020000Y-70500000D03*
D13*
X128560000Y-70500000D03*
%TD*%
D14*
%TO.C,R3*%
X137500000Y-71580000D03*
X137500000Y-68480000D03*
%TD*%
%TO.C,R6*%
X191938500Y-98800000D03*
X191938500Y-95700000D03*
%TD*%
D15*
%TO.C,J2*%
X215000000Y-136850000D03*
X215000000Y-130500000D03*
X215000000Y-124150000D03*
X215000000Y-117800000D03*
X215000000Y-111450000D03*
X215000000Y-105100000D03*
%TD*%
D16*
%TO.C,PS1*%
X155000000Y-93500000D03*
X163000000Y-93500000D03*
X163000000Y-132000000D03*
D17*
X152250000Y-132000000D03*
%TD*%
D14*
%TO.C,R5*%
X182688500Y-98800000D03*
X182688500Y-95700000D03*
%TD*%
D18*
%TO.C,J1*%
X146750000Y-75850000D03*
X149250000Y-75850000D03*
X151750000Y-75850000D03*
D19*
X154250000Y-75850000D03*
%TD*%
D20*
%TO.C,K1*%
X177000000Y-93800000D03*
X177000000Y-98880000D03*
X177000000Y-111580000D03*
X177000000Y-121740000D03*
%TD*%
D21*
%TO.C,C1*%
X141500000Y-71562500D03*
X141500000Y-68437500D03*
%TD*%
D15*
%TO.C,J3*%
X90650000Y-117395000D03*
X90650000Y-123745000D03*
X90650000Y-130095000D03*
%TD*%
D20*
%TO.C,K2*%
X197000000Y-93800000D03*
X197000000Y-98880000D03*
X197000000Y-111580000D03*
X197000000Y-121740000D03*
%TD*%
M02*
