%TF.GenerationSoftware,KiCad,Pcbnew,7.0.1*%
%TF.CreationDate,2023-05-13T00:12:20-05:00*%
%TF.ProjectId,sneksafe,736e616b-6574-4656-9d70-2e6b69636164,rev?*%
%TF.SameCoordinates,Original*%
%TF.FileFunction,Paste,Top*%
%TF.FilePolarity,Positive*%
%FSLAX46Y46*%
G04 Gerber Fmt 4.6, Leading zero omitted, Abs format (unit mm)*
G04 Created by KiCad (PCBNEW 7.0.1) date 2023-05-13 00:12:20*
%MOMM*%
%LPD*%
G01*
G04 APERTURE LIST*
G04 Aperture macros list*
%AMRoundRect*
0 Rectangle with rounded corners*
0 $1 Rounding radius*
0 $2 $3 $4 $5 $6 $7 $8 $9 X,Y pos of 4 corners*
0 Add a 4 corners polygon primitive as box body*
4,1,4,$2,$3,$4,$5,$6,$7,$8,$9,$2,$3,0*
0 Add four circle primitives for the rounded corners*
1,1,$1+$1,$2,$3*
1,1,$1+$1,$4,$5*
1,1,$1+$1,$6,$7*
1,1,$1+$1,$8,$9*
0 Add four rect primitives between the rounded corners*
20,1,$1+$1,$2,$3,$4,$5,0*
20,1,$1+$1,$4,$5,$6,$7,0*
20,1,$1+$1,$6,$7,$8,$9,0*
20,1,$1+$1,$8,$9,$2,$3,0*%
G04 Aperture macros list end*
%ADD10C,0.300000*%
%ADD11RoundRect,0.250000X0.625000X-0.400000X0.625000X0.400000X-0.625000X0.400000X-0.625000X-0.400000X0*%
%ADD12RoundRect,0.250000X-0.625000X0.400000X-0.625000X-0.400000X0.625000X-0.400000X0.625000X0.400000X0*%
%ADD13RoundRect,0.250000X-0.650000X0.412500X-0.650000X-0.412500X0.650000X-0.412500X0.650000X0.412500X0*%
G04 APERTURE END LIST*
D10*
X152345000Y-82514285D02*
X152416428Y-82300000D01*
X152416428Y-82300000D02*
X152416428Y-81942857D01*
X152416428Y-81942857D02*
X152345000Y-81800000D01*
X152345000Y-81800000D02*
X152273571Y-81728571D01*
X152273571Y-81728571D02*
X152130714Y-81657142D01*
X152130714Y-81657142D02*
X151987857Y-81657142D01*
X151987857Y-81657142D02*
X151845000Y-81728571D01*
X151845000Y-81728571D02*
X151773571Y-81800000D01*
X151773571Y-81800000D02*
X151702142Y-81942857D01*
X151702142Y-81942857D02*
X151630714Y-82228571D01*
X151630714Y-82228571D02*
X151559285Y-82371428D01*
X151559285Y-82371428D02*
X151487857Y-82442857D01*
X151487857Y-82442857D02*
X151345000Y-82514285D01*
X151345000Y-82514285D02*
X151202142Y-82514285D01*
X151202142Y-82514285D02*
X151059285Y-82442857D01*
X151059285Y-82442857D02*
X150987857Y-82371428D01*
X150987857Y-82371428D02*
X150916428Y-82228571D01*
X150916428Y-82228571D02*
X150916428Y-81871428D01*
X150916428Y-81871428D02*
X150987857Y-81657142D01*
X152273571Y-80157143D02*
X152345000Y-80228571D01*
X152345000Y-80228571D02*
X152416428Y-80442857D01*
X152416428Y-80442857D02*
X152416428Y-80585714D01*
X152416428Y-80585714D02*
X152345000Y-80800000D01*
X152345000Y-80800000D02*
X152202142Y-80942857D01*
X152202142Y-80942857D02*
X152059285Y-81014286D01*
X152059285Y-81014286D02*
X151773571Y-81085714D01*
X151773571Y-81085714D02*
X151559285Y-81085714D01*
X151559285Y-81085714D02*
X151273571Y-81014286D01*
X151273571Y-81014286D02*
X151130714Y-80942857D01*
X151130714Y-80942857D02*
X150987857Y-80800000D01*
X150987857Y-80800000D02*
X150916428Y-80585714D01*
X150916428Y-80585714D02*
X150916428Y-80442857D01*
X150916428Y-80442857D02*
X150987857Y-80228571D01*
X150987857Y-80228571D02*
X151059285Y-80157143D01*
X152416428Y-78800000D02*
X152416428Y-79514286D01*
X152416428Y-79514286D02*
X150916428Y-79514286D01*
X149745000Y-82514285D02*
X149816428Y-82300000D01*
X149816428Y-82300000D02*
X149816428Y-81942857D01*
X149816428Y-81942857D02*
X149745000Y-81800000D01*
X149745000Y-81800000D02*
X149673571Y-81728571D01*
X149673571Y-81728571D02*
X149530714Y-81657142D01*
X149530714Y-81657142D02*
X149387857Y-81657142D01*
X149387857Y-81657142D02*
X149245000Y-81728571D01*
X149245000Y-81728571D02*
X149173571Y-81800000D01*
X149173571Y-81800000D02*
X149102142Y-81942857D01*
X149102142Y-81942857D02*
X149030714Y-82228571D01*
X149030714Y-82228571D02*
X148959285Y-82371428D01*
X148959285Y-82371428D02*
X148887857Y-82442857D01*
X148887857Y-82442857D02*
X148745000Y-82514285D01*
X148745000Y-82514285D02*
X148602142Y-82514285D01*
X148602142Y-82514285D02*
X148459285Y-82442857D01*
X148459285Y-82442857D02*
X148387857Y-82371428D01*
X148387857Y-82371428D02*
X148316428Y-82228571D01*
X148316428Y-82228571D02*
X148316428Y-81871428D01*
X148316428Y-81871428D02*
X148387857Y-81657142D01*
X149816428Y-81014286D02*
X148316428Y-81014286D01*
X148316428Y-81014286D02*
X148316428Y-80657143D01*
X148316428Y-80657143D02*
X148387857Y-80442857D01*
X148387857Y-80442857D02*
X148530714Y-80300000D01*
X148530714Y-80300000D02*
X148673571Y-80228571D01*
X148673571Y-80228571D02*
X148959285Y-80157143D01*
X148959285Y-80157143D02*
X149173571Y-80157143D01*
X149173571Y-80157143D02*
X149459285Y-80228571D01*
X149459285Y-80228571D02*
X149602142Y-80300000D01*
X149602142Y-80300000D02*
X149745000Y-80442857D01*
X149745000Y-80442857D02*
X149816428Y-80657143D01*
X149816428Y-80657143D02*
X149816428Y-81014286D01*
X149387857Y-79585714D02*
X149387857Y-78871429D01*
X149816428Y-79728571D02*
X148316428Y-79228571D01*
X148316428Y-79228571D02*
X149816428Y-78728571D01*
X146116428Y-82585714D02*
X146116428Y-81657142D01*
X146116428Y-81657142D02*
X146687857Y-82157142D01*
X146687857Y-82157142D02*
X146687857Y-81942857D01*
X146687857Y-81942857D02*
X146759285Y-81800000D01*
X146759285Y-81800000D02*
X146830714Y-81728571D01*
X146830714Y-81728571D02*
X146973571Y-81657142D01*
X146973571Y-81657142D02*
X147330714Y-81657142D01*
X147330714Y-81657142D02*
X147473571Y-81728571D01*
X147473571Y-81728571D02*
X147545000Y-81800000D01*
X147545000Y-81800000D02*
X147616428Y-81942857D01*
X147616428Y-81942857D02*
X147616428Y-82371428D01*
X147616428Y-82371428D02*
X147545000Y-82514285D01*
X147545000Y-82514285D02*
X147473571Y-82585714D01*
X146116428Y-81228571D02*
X147616428Y-80728571D01*
X147616428Y-80728571D02*
X146116428Y-80228571D01*
X146116428Y-79871429D02*
X146116428Y-78942857D01*
X146116428Y-78942857D02*
X146687857Y-79442857D01*
X146687857Y-79442857D02*
X146687857Y-79228572D01*
X146687857Y-79228572D02*
X146759285Y-79085715D01*
X146759285Y-79085715D02*
X146830714Y-79014286D01*
X146830714Y-79014286D02*
X146973571Y-78942857D01*
X146973571Y-78942857D02*
X147330714Y-78942857D01*
X147330714Y-78942857D02*
X147473571Y-79014286D01*
X147473571Y-79014286D02*
X147545000Y-79085715D01*
X147545000Y-79085715D02*
X147616428Y-79228572D01*
X147616428Y-79228572D02*
X147616428Y-79657143D01*
X147616428Y-79657143D02*
X147545000Y-79800000D01*
X147545000Y-79800000D02*
X147473571Y-79871429D01*
X146116428Y-82585714D02*
X146116428Y-81657142D01*
X146116428Y-81657142D02*
X146687857Y-82157142D01*
X146687857Y-82157142D02*
X146687857Y-81942857D01*
X146687857Y-81942857D02*
X146759285Y-81800000D01*
X146759285Y-81800000D02*
X146830714Y-81728571D01*
X146830714Y-81728571D02*
X146973571Y-81657142D01*
X146973571Y-81657142D02*
X147330714Y-81657142D01*
X147330714Y-81657142D02*
X147473571Y-81728571D01*
X147473571Y-81728571D02*
X147545000Y-81800000D01*
X147545000Y-81800000D02*
X147616428Y-81942857D01*
X147616428Y-81942857D02*
X147616428Y-82371428D01*
X147616428Y-82371428D02*
X147545000Y-82514285D01*
X147545000Y-82514285D02*
X147473571Y-82585714D01*
X146116428Y-81228571D02*
X147616428Y-80728571D01*
X147616428Y-80728571D02*
X146116428Y-80228571D01*
X146116428Y-79871429D02*
X146116428Y-78942857D01*
X146116428Y-78942857D02*
X146687857Y-79442857D01*
X146687857Y-79442857D02*
X146687857Y-79228572D01*
X146687857Y-79228572D02*
X146759285Y-79085715D01*
X146759285Y-79085715D02*
X146830714Y-79014286D01*
X146830714Y-79014286D02*
X146973571Y-78942857D01*
X146973571Y-78942857D02*
X147330714Y-78942857D01*
X147330714Y-78942857D02*
X147473571Y-79014286D01*
X147473571Y-79014286D02*
X147545000Y-79085715D01*
X147545000Y-79085715D02*
X147616428Y-79228572D01*
X147616428Y-79228572D02*
X147616428Y-79657143D01*
X147616428Y-79657143D02*
X147545000Y-79800000D01*
X147545000Y-79800000D02*
X147473571Y-79871429D01*
X153587857Y-82057142D02*
X153516428Y-82200000D01*
X153516428Y-82200000D02*
X153516428Y-82414285D01*
X153516428Y-82414285D02*
X153587857Y-82628571D01*
X153587857Y-82628571D02*
X153730714Y-82771428D01*
X153730714Y-82771428D02*
X153873571Y-82842857D01*
X153873571Y-82842857D02*
X154159285Y-82914285D01*
X154159285Y-82914285D02*
X154373571Y-82914285D01*
X154373571Y-82914285D02*
X154659285Y-82842857D01*
X154659285Y-82842857D02*
X154802142Y-82771428D01*
X154802142Y-82771428D02*
X154945000Y-82628571D01*
X154945000Y-82628571D02*
X155016428Y-82414285D01*
X155016428Y-82414285D02*
X155016428Y-82271428D01*
X155016428Y-82271428D02*
X154945000Y-82057142D01*
X154945000Y-82057142D02*
X154873571Y-81985714D01*
X154873571Y-81985714D02*
X154373571Y-81985714D01*
X154373571Y-81985714D02*
X154373571Y-82271428D01*
X155016428Y-81342857D02*
X153516428Y-81342857D01*
X153516428Y-81342857D02*
X155016428Y-80485714D01*
X155016428Y-80485714D02*
X153516428Y-80485714D01*
X155016428Y-79771428D02*
X153516428Y-79771428D01*
X153516428Y-79771428D02*
X153516428Y-79414285D01*
X153516428Y-79414285D02*
X153587857Y-79199999D01*
X153587857Y-79199999D02*
X153730714Y-79057142D01*
X153730714Y-79057142D02*
X153873571Y-78985713D01*
X153873571Y-78985713D02*
X154159285Y-78914285D01*
X154159285Y-78914285D02*
X154373571Y-78914285D01*
X154373571Y-78914285D02*
X154659285Y-78985713D01*
X154659285Y-78985713D02*
X154802142Y-79057142D01*
X154802142Y-79057142D02*
X154945000Y-79199999D01*
X154945000Y-79199999D02*
X155016428Y-79414285D01*
X155016428Y-79414285D02*
X155016428Y-79771428D01*
X152345000Y-82514285D02*
X152416428Y-82300000D01*
X152416428Y-82300000D02*
X152416428Y-81942857D01*
X152416428Y-81942857D02*
X152345000Y-81800000D01*
X152345000Y-81800000D02*
X152273571Y-81728571D01*
X152273571Y-81728571D02*
X152130714Y-81657142D01*
X152130714Y-81657142D02*
X151987857Y-81657142D01*
X151987857Y-81657142D02*
X151845000Y-81728571D01*
X151845000Y-81728571D02*
X151773571Y-81800000D01*
X151773571Y-81800000D02*
X151702142Y-81942857D01*
X151702142Y-81942857D02*
X151630714Y-82228571D01*
X151630714Y-82228571D02*
X151559285Y-82371428D01*
X151559285Y-82371428D02*
X151487857Y-82442857D01*
X151487857Y-82442857D02*
X151345000Y-82514285D01*
X151345000Y-82514285D02*
X151202142Y-82514285D01*
X151202142Y-82514285D02*
X151059285Y-82442857D01*
X151059285Y-82442857D02*
X150987857Y-82371428D01*
X150987857Y-82371428D02*
X150916428Y-82228571D01*
X150916428Y-82228571D02*
X150916428Y-81871428D01*
X150916428Y-81871428D02*
X150987857Y-81657142D01*
X152273571Y-80157143D02*
X152345000Y-80228571D01*
X152345000Y-80228571D02*
X152416428Y-80442857D01*
X152416428Y-80442857D02*
X152416428Y-80585714D01*
X152416428Y-80585714D02*
X152345000Y-80800000D01*
X152345000Y-80800000D02*
X152202142Y-80942857D01*
X152202142Y-80942857D02*
X152059285Y-81014286D01*
X152059285Y-81014286D02*
X151773571Y-81085714D01*
X151773571Y-81085714D02*
X151559285Y-81085714D01*
X151559285Y-81085714D02*
X151273571Y-81014286D01*
X151273571Y-81014286D02*
X151130714Y-80942857D01*
X151130714Y-80942857D02*
X150987857Y-80800000D01*
X150987857Y-80800000D02*
X150916428Y-80585714D01*
X150916428Y-80585714D02*
X150916428Y-80442857D01*
X150916428Y-80442857D02*
X150987857Y-80228571D01*
X150987857Y-80228571D02*
X151059285Y-80157143D01*
X152416428Y-78800000D02*
X152416428Y-79514286D01*
X152416428Y-79514286D02*
X150916428Y-79514286D01*
X149745000Y-82514285D02*
X149816428Y-82300000D01*
X149816428Y-82300000D02*
X149816428Y-81942857D01*
X149816428Y-81942857D02*
X149745000Y-81800000D01*
X149745000Y-81800000D02*
X149673571Y-81728571D01*
X149673571Y-81728571D02*
X149530714Y-81657142D01*
X149530714Y-81657142D02*
X149387857Y-81657142D01*
X149387857Y-81657142D02*
X149245000Y-81728571D01*
X149245000Y-81728571D02*
X149173571Y-81800000D01*
X149173571Y-81800000D02*
X149102142Y-81942857D01*
X149102142Y-81942857D02*
X149030714Y-82228571D01*
X149030714Y-82228571D02*
X148959285Y-82371428D01*
X148959285Y-82371428D02*
X148887857Y-82442857D01*
X148887857Y-82442857D02*
X148745000Y-82514285D01*
X148745000Y-82514285D02*
X148602142Y-82514285D01*
X148602142Y-82514285D02*
X148459285Y-82442857D01*
X148459285Y-82442857D02*
X148387857Y-82371428D01*
X148387857Y-82371428D02*
X148316428Y-82228571D01*
X148316428Y-82228571D02*
X148316428Y-81871428D01*
X148316428Y-81871428D02*
X148387857Y-81657142D01*
X149816428Y-81014286D02*
X148316428Y-81014286D01*
X148316428Y-81014286D02*
X148316428Y-80657143D01*
X148316428Y-80657143D02*
X148387857Y-80442857D01*
X148387857Y-80442857D02*
X148530714Y-80300000D01*
X148530714Y-80300000D02*
X148673571Y-80228571D01*
X148673571Y-80228571D02*
X148959285Y-80157143D01*
X148959285Y-80157143D02*
X149173571Y-80157143D01*
X149173571Y-80157143D02*
X149459285Y-80228571D01*
X149459285Y-80228571D02*
X149602142Y-80300000D01*
X149602142Y-80300000D02*
X149745000Y-80442857D01*
X149745000Y-80442857D02*
X149816428Y-80657143D01*
X149816428Y-80657143D02*
X149816428Y-81014286D01*
X149387857Y-79585714D02*
X149387857Y-78871429D01*
X149816428Y-79728571D02*
X148316428Y-79228571D01*
X148316428Y-79228571D02*
X149816428Y-78728571D01*
X153587857Y-82057142D02*
X153516428Y-82200000D01*
X153516428Y-82200000D02*
X153516428Y-82414285D01*
X153516428Y-82414285D02*
X153587857Y-82628571D01*
X153587857Y-82628571D02*
X153730714Y-82771428D01*
X153730714Y-82771428D02*
X153873571Y-82842857D01*
X153873571Y-82842857D02*
X154159285Y-82914285D01*
X154159285Y-82914285D02*
X154373571Y-82914285D01*
X154373571Y-82914285D02*
X154659285Y-82842857D01*
X154659285Y-82842857D02*
X154802142Y-82771428D01*
X154802142Y-82771428D02*
X154945000Y-82628571D01*
X154945000Y-82628571D02*
X155016428Y-82414285D01*
X155016428Y-82414285D02*
X155016428Y-82271428D01*
X155016428Y-82271428D02*
X154945000Y-82057142D01*
X154945000Y-82057142D02*
X154873571Y-81985714D01*
X154873571Y-81985714D02*
X154373571Y-81985714D01*
X154373571Y-81985714D02*
X154373571Y-82271428D01*
X155016428Y-81342857D02*
X153516428Y-81342857D01*
X153516428Y-81342857D02*
X155016428Y-80485714D01*
X155016428Y-80485714D02*
X153516428Y-80485714D01*
X155016428Y-79771428D02*
X153516428Y-79771428D01*
X153516428Y-79771428D02*
X153516428Y-79414285D01*
X153516428Y-79414285D02*
X153587857Y-79199999D01*
X153587857Y-79199999D02*
X153730714Y-79057142D01*
X153730714Y-79057142D02*
X153873571Y-78985713D01*
X153873571Y-78985713D02*
X154159285Y-78914285D01*
X154159285Y-78914285D02*
X154373571Y-78914285D01*
X154373571Y-78914285D02*
X154659285Y-78985713D01*
X154659285Y-78985713D02*
X154802142Y-79057142D01*
X154802142Y-79057142D02*
X154945000Y-79199999D01*
X154945000Y-79199999D02*
X155016428Y-79414285D01*
X155016428Y-79414285D02*
X155016428Y-79771428D01*
D11*
%TO.C,R1*%
X142500000Y-81450000D03*
X142500000Y-84550000D03*
%TD*%
%TO.C,R2*%
X146500000Y-83950000D03*
X146500000Y-87050000D03*
%TD*%
D12*
%TO.C,R3*%
X137500000Y-71580000D03*
X137500000Y-68480000D03*
%TD*%
%TO.C,R6*%
X191938500Y-98800000D03*
X191938500Y-95700000D03*
%TD*%
%TO.C,R5*%
X182688500Y-98800000D03*
X182688500Y-95700000D03*
%TD*%
D13*
%TO.C,C1*%
X141500000Y-71562500D03*
X141500000Y-68437500D03*
%TD*%
M02*
