%TF.GenerationSoftware,KiCad,Pcbnew,8.0.1*%
%TF.CreationDate,2024-04-01T00:46:39-05:00*%
%TF.ProjectId,sneksafe,736e656b-7361-4666-952e-6b696361645f,rev?*%
%TF.SameCoordinates,Original*%
%TF.FileFunction,Drillmap*%
%TF.FilePolarity,Positive*%
%FSLAX45Y45*%
G04 Gerber Fmt 4.5, Leading zero omitted, Abs format (unit mm)*
G04 Created by KiCad (PCBNEW 8.0.1) date 2024-04-01 00:46:39*
%MOMM*%
%LPD*%
G01*
G04 APERTURE LIST*
%ADD10C,0.100000*%
%ADD11C,0.200000*%
G04 APERTURE END LIST*
D10*
X8100000Y-6600000D02*
X22400000Y-6600000D01*
X19875000Y-10200000D02*
G75*
G02*
X19875000Y-10800000I0J-300000D01*
G01*
X14600000Y-10800000D02*
X19875000Y-10800000D01*
X8080000Y-14740000D02*
X22400000Y-14720000D01*
X19875000Y-10200000D02*
X14600000Y-10200000D01*
X14600000Y-10200000D02*
X8725000Y-10200000D01*
X8725000Y-10800000D02*
X14600000Y-10800000D01*
X8100000Y-6600000D02*
X8100000Y-14400000D01*
X22400000Y-14400000D02*
X22400000Y-6700000D01*
X22400000Y-6600000D02*
X22400000Y-6700000D01*
X8725000Y-10800000D02*
G75*
G02*
X8725000Y-10200000I0J300000D01*
G01*
D11*
X8335777Y-15056484D02*
X8335777Y-14856484D01*
X8335777Y-14856484D02*
X8383396Y-14856484D01*
X8383396Y-14856484D02*
X8411967Y-14866008D01*
X8411967Y-14866008D02*
X8431015Y-14885055D01*
X8431015Y-14885055D02*
X8440539Y-14904103D01*
X8440539Y-14904103D02*
X8450063Y-14942198D01*
X8450063Y-14942198D02*
X8450063Y-14970769D01*
X8450063Y-14970769D02*
X8440539Y-15008865D01*
X8440539Y-15008865D02*
X8431015Y-15027912D01*
X8431015Y-15027912D02*
X8411967Y-15046960D01*
X8411967Y-15046960D02*
X8383396Y-15056484D01*
X8383396Y-15056484D02*
X8335777Y-15056484D01*
X8535777Y-15056484D02*
X8535777Y-14923150D01*
X8535777Y-14961246D02*
X8545301Y-14942198D01*
X8545301Y-14942198D02*
X8554824Y-14932674D01*
X8554824Y-14932674D02*
X8573872Y-14923150D01*
X8573872Y-14923150D02*
X8592920Y-14923150D01*
X8659586Y-15056484D02*
X8659586Y-14923150D01*
X8659586Y-14856484D02*
X8650063Y-14866008D01*
X8650063Y-14866008D02*
X8659586Y-14875531D01*
X8659586Y-14875531D02*
X8669110Y-14866008D01*
X8669110Y-14866008D02*
X8659586Y-14856484D01*
X8659586Y-14856484D02*
X8659586Y-14875531D01*
X8783396Y-15056484D02*
X8764348Y-15046960D01*
X8764348Y-15046960D02*
X8754824Y-15027912D01*
X8754824Y-15027912D02*
X8754824Y-14856484D01*
X8888158Y-15056484D02*
X8869110Y-15046960D01*
X8869110Y-15046960D02*
X8859586Y-15027912D01*
X8859586Y-15027912D02*
X8859586Y-14856484D01*
X9116729Y-15056484D02*
X9116729Y-14856484D01*
X9116729Y-14856484D02*
X9183396Y-14999341D01*
X9183396Y-14999341D02*
X9250063Y-14856484D01*
X9250063Y-14856484D02*
X9250063Y-15056484D01*
X9431015Y-15056484D02*
X9431015Y-14951722D01*
X9431015Y-14951722D02*
X9421491Y-14932674D01*
X9421491Y-14932674D02*
X9402444Y-14923150D01*
X9402444Y-14923150D02*
X9364348Y-14923150D01*
X9364348Y-14923150D02*
X9345301Y-14932674D01*
X9431015Y-15046960D02*
X9411967Y-15056484D01*
X9411967Y-15056484D02*
X9364348Y-15056484D01*
X9364348Y-15056484D02*
X9345301Y-15046960D01*
X9345301Y-15046960D02*
X9335777Y-15027912D01*
X9335777Y-15027912D02*
X9335777Y-15008865D01*
X9335777Y-15008865D02*
X9345301Y-14989817D01*
X9345301Y-14989817D02*
X9364348Y-14980293D01*
X9364348Y-14980293D02*
X9411967Y-14980293D01*
X9411967Y-14980293D02*
X9431015Y-14970769D01*
X9526253Y-14923150D02*
X9526253Y-15123150D01*
X9526253Y-14932674D02*
X9545301Y-14923150D01*
X9545301Y-14923150D02*
X9583396Y-14923150D01*
X9583396Y-14923150D02*
X9602444Y-14932674D01*
X9602444Y-14932674D02*
X9611967Y-14942198D01*
X9611967Y-14942198D02*
X9621491Y-14961246D01*
X9621491Y-14961246D02*
X9621491Y-15018388D01*
X9621491Y-15018388D02*
X9611967Y-15037436D01*
X9611967Y-15037436D02*
X9602444Y-15046960D01*
X9602444Y-15046960D02*
X9583396Y-15056484D01*
X9583396Y-15056484D02*
X9545301Y-15056484D01*
X9545301Y-15056484D02*
X9526253Y-15046960D01*
X9707205Y-15037436D02*
X9716729Y-15046960D01*
X9716729Y-15046960D02*
X9707205Y-15056484D01*
X9707205Y-15056484D02*
X9697682Y-15046960D01*
X9697682Y-15046960D02*
X9707205Y-15037436D01*
X9707205Y-15037436D02*
X9707205Y-15056484D01*
X9707205Y-14932674D02*
X9716729Y-14942198D01*
X9716729Y-14942198D02*
X9707205Y-14951722D01*
X9707205Y-14951722D02*
X9697682Y-14942198D01*
X9697682Y-14942198D02*
X9707205Y-14932674D01*
X9707205Y-14932674D02*
X9707205Y-14951722D01*
M02*
