G04 #@! TF.GenerationSoftware,KiCad,Pcbnew,8.0.1*
G04 #@! TF.CreationDate,2024-04-01T00:43:30-05:00*
G04 #@! TF.ProjectId,sneksafe,736e656b-7361-4666-952e-6b696361645f,rev?*
G04 #@! TF.SameCoordinates,Original*
G04 #@! TF.FileFunction,Copper,L1,Top*
G04 #@! TF.FilePolarity,Positive*
%FSLAX46Y46*%
G04 Gerber Fmt 4.6, Leading zero omitted, Abs format (unit mm)*
G04 Created by KiCad (PCBNEW 8.0.1) date 2024-04-01 00:43:30*
%MOMM*%
%LPD*%
G01*
G04 APERTURE LIST*
G04 Aperture macros list*
%AMRoundRect*
0 Rectangle with rounded corners*
0 $1 Rounding radius*
0 $2 $3 $4 $5 $6 $7 $8 $9 X,Y pos of 4 corners*
0 Add a 4 corners polygon primitive as box body*
4,1,4,$2,$3,$4,$5,$6,$7,$8,$9,$2,$3,0*
0 Add four circle primitives for the rounded corners*
1,1,$1+$1,$2,$3*
1,1,$1+$1,$4,$5*
1,1,$1+$1,$6,$7*
1,1,$1+$1,$8,$9*
0 Add four rect primitives between the rounded corners*
20,1,$1+$1,$2,$3,$4,$5,0*
20,1,$1+$1,$4,$5,$6,$7,0*
20,1,$1+$1,$6,$7,$8,$9,0*
20,1,$1+$1,$8,$9,$2,$3,0*%
G04 Aperture macros list end*
%ADD10C,0.300000*%
G04 #@! TA.AperFunction,NonConductor*
%ADD11C,0.300000*%
G04 #@! TD*
G04 #@! TA.AperFunction,SMDPad,CuDef*
%ADD12RoundRect,0.250000X0.625000X-0.400000X0.625000X0.400000X-0.625000X0.400000X-0.625000X-0.400000X0*%
G04 #@! TD*
G04 #@! TA.AperFunction,ComponentPad*
%ADD13R,1.560000X1.560000*%
G04 #@! TD*
G04 #@! TA.AperFunction,ComponentPad*
%ADD14C,1.560000*%
G04 #@! TD*
G04 #@! TA.AperFunction,SMDPad,CuDef*
%ADD15RoundRect,0.250000X-0.625000X0.400000X-0.625000X-0.400000X0.625000X-0.400000X0.625000X0.400000X0*%
G04 #@! TD*
G04 #@! TA.AperFunction,ComponentPad*
%ADD16C,0.800000*%
G04 #@! TD*
G04 #@! TA.AperFunction,ComponentPad*
%ADD17C,6.400000*%
G04 #@! TD*
G04 #@! TA.AperFunction,ComponentPad*
%ADD18C,1.950000*%
G04 #@! TD*
G04 #@! TA.AperFunction,ComponentPad*
%ADD19R,1.600000X1.600000*%
G04 #@! TD*
G04 #@! TA.AperFunction,ComponentPad*
%ADD20O,1.600000X1.600000*%
G04 #@! TD*
G04 #@! TA.AperFunction,ComponentPad*
%ADD21R,1.800000X1.800000*%
G04 #@! TD*
G04 #@! TA.AperFunction,ComponentPad*
%ADD22C,1.800000*%
G04 #@! TD*
G04 #@! TA.AperFunction,SMDPad,CuDef*
%ADD23R,0.700000X1.600000*%
G04 #@! TD*
G04 #@! TA.AperFunction,ComponentPad*
%ADD24RoundRect,0.250000X0.600000X0.725000X-0.600000X0.725000X-0.600000X-0.725000X0.600000X-0.725000X0*%
G04 #@! TD*
G04 #@! TA.AperFunction,ComponentPad*
%ADD25O,1.700000X1.950000*%
G04 #@! TD*
G04 #@! TA.AperFunction,ComponentPad*
%ADD26C,2.175000*%
G04 #@! TD*
G04 #@! TA.AperFunction,SMDPad,CuDef*
%ADD27RoundRect,0.250000X-0.650000X0.412500X-0.650000X-0.412500X0.650000X-0.412500X0.650000X0.412500X0*%
G04 #@! TD*
G04 #@! TA.AperFunction,ViaPad*
%ADD28C,0.800000*%
G04 #@! TD*
G04 #@! TA.AperFunction,Conductor*
%ADD29C,3.000000*%
G04 #@! TD*
G04 #@! TA.AperFunction,Conductor*
%ADD30C,4.000000*%
G04 #@! TD*
G04 #@! TA.AperFunction,Conductor*
%ADD31C,0.400000*%
G04 #@! TD*
G04 APERTURE END LIST*
D10*
D11*
X84411653Y-141657971D02*
X84340225Y-141729400D01*
X84340225Y-141729400D02*
X84125939Y-141800828D01*
X84125939Y-141800828D02*
X83983082Y-141800828D01*
X83983082Y-141800828D02*
X83768796Y-141729400D01*
X83768796Y-141729400D02*
X83625939Y-141586542D01*
X83625939Y-141586542D02*
X83554510Y-141443685D01*
X83554510Y-141443685D02*
X83483082Y-141157971D01*
X83483082Y-141157971D02*
X83483082Y-140943685D01*
X83483082Y-140943685D02*
X83554510Y-140657971D01*
X83554510Y-140657971D02*
X83625939Y-140515114D01*
X83625939Y-140515114D02*
X83768796Y-140372257D01*
X83768796Y-140372257D02*
X83983082Y-140300828D01*
X83983082Y-140300828D02*
X84125939Y-140300828D01*
X84125939Y-140300828D02*
X84340225Y-140372257D01*
X84340225Y-140372257D02*
X84411653Y-140443685D01*
X85268796Y-141800828D02*
X85125939Y-141729400D01*
X85125939Y-141729400D02*
X85054510Y-141657971D01*
X85054510Y-141657971D02*
X84983082Y-141515114D01*
X84983082Y-141515114D02*
X84983082Y-141086542D01*
X84983082Y-141086542D02*
X85054510Y-140943685D01*
X85054510Y-140943685D02*
X85125939Y-140872257D01*
X85125939Y-140872257D02*
X85268796Y-140800828D01*
X85268796Y-140800828D02*
X85483082Y-140800828D01*
X85483082Y-140800828D02*
X85625939Y-140872257D01*
X85625939Y-140872257D02*
X85697368Y-140943685D01*
X85697368Y-140943685D02*
X85768796Y-141086542D01*
X85768796Y-141086542D02*
X85768796Y-141515114D01*
X85768796Y-141515114D02*
X85697368Y-141657971D01*
X85697368Y-141657971D02*
X85625939Y-141729400D01*
X85625939Y-141729400D02*
X85483082Y-141800828D01*
X85483082Y-141800828D02*
X85268796Y-141800828D01*
X86411653Y-140800828D02*
X86411653Y-142300828D01*
X86411653Y-140872257D02*
X86554511Y-140800828D01*
X86554511Y-140800828D02*
X86840225Y-140800828D01*
X86840225Y-140800828D02*
X86983082Y-140872257D01*
X86983082Y-140872257D02*
X87054511Y-140943685D01*
X87054511Y-140943685D02*
X87125939Y-141086542D01*
X87125939Y-141086542D02*
X87125939Y-141515114D01*
X87125939Y-141515114D02*
X87054511Y-141657971D01*
X87054511Y-141657971D02*
X86983082Y-141729400D01*
X86983082Y-141729400D02*
X86840225Y-141800828D01*
X86840225Y-141800828D02*
X86554511Y-141800828D01*
X86554511Y-141800828D02*
X86411653Y-141729400D01*
X87625939Y-140800828D02*
X87983082Y-141800828D01*
X88340225Y-140800828D02*
X87983082Y-141800828D01*
X87983082Y-141800828D02*
X87840225Y-142157971D01*
X87840225Y-142157971D02*
X87768796Y-142229400D01*
X87768796Y-142229400D02*
X87625939Y-142300828D01*
X88911653Y-141800828D02*
X88911653Y-140800828D01*
X88911653Y-141086542D02*
X88983082Y-140943685D01*
X88983082Y-140943685D02*
X89054511Y-140872257D01*
X89054511Y-140872257D02*
X89197368Y-140800828D01*
X89197368Y-140800828D02*
X89340225Y-140800828D01*
X89840224Y-141800828D02*
X89840224Y-140800828D01*
X89840224Y-140300828D02*
X89768796Y-140372257D01*
X89768796Y-140372257D02*
X89840224Y-140443685D01*
X89840224Y-140443685D02*
X89911653Y-140372257D01*
X89911653Y-140372257D02*
X89840224Y-140300828D01*
X89840224Y-140300828D02*
X89840224Y-140443685D01*
X91197368Y-140800828D02*
X91197368Y-142015114D01*
X91197368Y-142015114D02*
X91125939Y-142157971D01*
X91125939Y-142157971D02*
X91054510Y-142229400D01*
X91054510Y-142229400D02*
X90911653Y-142300828D01*
X90911653Y-142300828D02*
X90697368Y-142300828D01*
X90697368Y-142300828D02*
X90554510Y-142229400D01*
X91197368Y-141729400D02*
X91054510Y-141800828D01*
X91054510Y-141800828D02*
X90768796Y-141800828D01*
X90768796Y-141800828D02*
X90625939Y-141729400D01*
X90625939Y-141729400D02*
X90554510Y-141657971D01*
X90554510Y-141657971D02*
X90483082Y-141515114D01*
X90483082Y-141515114D02*
X90483082Y-141086542D01*
X90483082Y-141086542D02*
X90554510Y-140943685D01*
X90554510Y-140943685D02*
X90625939Y-140872257D01*
X90625939Y-140872257D02*
X90768796Y-140800828D01*
X90768796Y-140800828D02*
X91054510Y-140800828D01*
X91054510Y-140800828D02*
X91197368Y-140872257D01*
X91911653Y-141800828D02*
X91911653Y-140300828D01*
X92554511Y-141800828D02*
X92554511Y-141015114D01*
X92554511Y-141015114D02*
X92483082Y-140872257D01*
X92483082Y-140872257D02*
X92340225Y-140800828D01*
X92340225Y-140800828D02*
X92125939Y-140800828D01*
X92125939Y-140800828D02*
X91983082Y-140872257D01*
X91983082Y-140872257D02*
X91911653Y-140943685D01*
X93054511Y-140800828D02*
X93625939Y-140800828D01*
X93268796Y-140300828D02*
X93268796Y-141586542D01*
X93268796Y-141586542D02*
X93340225Y-141729400D01*
X93340225Y-141729400D02*
X93483082Y-141800828D01*
X93483082Y-141800828D02*
X93625939Y-141800828D01*
X96483082Y-140657971D02*
X96340225Y-140586542D01*
X96340225Y-140586542D02*
X96054511Y-140586542D01*
X96054511Y-140586542D02*
X95911654Y-140657971D01*
X95911654Y-140657971D02*
X95768796Y-140800828D01*
X95768796Y-140800828D02*
X95697368Y-140943685D01*
X95697368Y-140943685D02*
X95697368Y-141229400D01*
X95697368Y-141229400D02*
X95768796Y-141372257D01*
X95768796Y-141372257D02*
X95911654Y-141515114D01*
X95911654Y-141515114D02*
X96054511Y-141586542D01*
X96054511Y-141586542D02*
X96340225Y-141586542D01*
X96340225Y-141586542D02*
X96483082Y-141515114D01*
X96197368Y-140086542D02*
X95840225Y-140157971D01*
X95840225Y-140157971D02*
X95483082Y-140372257D01*
X95483082Y-140372257D02*
X95268796Y-140729400D01*
X95268796Y-140729400D02*
X95197368Y-141086542D01*
X95197368Y-141086542D02*
X95268796Y-141443685D01*
X95268796Y-141443685D02*
X95483082Y-141800828D01*
X95483082Y-141800828D02*
X95840225Y-142015114D01*
X95840225Y-142015114D02*
X96197368Y-142086542D01*
X96197368Y-142086542D02*
X96554511Y-142015114D01*
X96554511Y-142015114D02*
X96911654Y-141800828D01*
X96911654Y-141800828D02*
X97125939Y-141443685D01*
X97125939Y-141443685D02*
X97197368Y-141086542D01*
X97197368Y-141086542D02*
X97125939Y-140729400D01*
X97125939Y-140729400D02*
X96911654Y-140372257D01*
X96911654Y-140372257D02*
X96554511Y-140157971D01*
X96554511Y-140157971D02*
X96197368Y-140086542D01*
X98911654Y-140443685D02*
X98983082Y-140372257D01*
X98983082Y-140372257D02*
X99125940Y-140300828D01*
X99125940Y-140300828D02*
X99483082Y-140300828D01*
X99483082Y-140300828D02*
X99625940Y-140372257D01*
X99625940Y-140372257D02*
X99697368Y-140443685D01*
X99697368Y-140443685D02*
X99768797Y-140586542D01*
X99768797Y-140586542D02*
X99768797Y-140729400D01*
X99768797Y-140729400D02*
X99697368Y-140943685D01*
X99697368Y-140943685D02*
X98840225Y-141800828D01*
X98840225Y-141800828D02*
X99768797Y-141800828D01*
X100697368Y-140300828D02*
X100840225Y-140300828D01*
X100840225Y-140300828D02*
X100983082Y-140372257D01*
X100983082Y-140372257D02*
X101054511Y-140443685D01*
X101054511Y-140443685D02*
X101125939Y-140586542D01*
X101125939Y-140586542D02*
X101197368Y-140872257D01*
X101197368Y-140872257D02*
X101197368Y-141229400D01*
X101197368Y-141229400D02*
X101125939Y-141515114D01*
X101125939Y-141515114D02*
X101054511Y-141657971D01*
X101054511Y-141657971D02*
X100983082Y-141729400D01*
X100983082Y-141729400D02*
X100840225Y-141800828D01*
X100840225Y-141800828D02*
X100697368Y-141800828D01*
X100697368Y-141800828D02*
X100554511Y-141729400D01*
X100554511Y-141729400D02*
X100483082Y-141657971D01*
X100483082Y-141657971D02*
X100411653Y-141515114D01*
X100411653Y-141515114D02*
X100340225Y-141229400D01*
X100340225Y-141229400D02*
X100340225Y-140872257D01*
X100340225Y-140872257D02*
X100411653Y-140586542D01*
X100411653Y-140586542D02*
X100483082Y-140443685D01*
X100483082Y-140443685D02*
X100554511Y-140372257D01*
X100554511Y-140372257D02*
X100697368Y-140300828D01*
X102625939Y-141800828D02*
X101768796Y-141800828D01*
X102197367Y-141800828D02*
X102197367Y-140300828D01*
X102197367Y-140300828D02*
X102054510Y-140515114D01*
X102054510Y-140515114D02*
X101911653Y-140657971D01*
X101911653Y-140657971D02*
X101768796Y-140729400D01*
X103483081Y-140943685D02*
X103340224Y-140872257D01*
X103340224Y-140872257D02*
X103268795Y-140800828D01*
X103268795Y-140800828D02*
X103197367Y-140657971D01*
X103197367Y-140657971D02*
X103197367Y-140586542D01*
X103197367Y-140586542D02*
X103268795Y-140443685D01*
X103268795Y-140443685D02*
X103340224Y-140372257D01*
X103340224Y-140372257D02*
X103483081Y-140300828D01*
X103483081Y-140300828D02*
X103768795Y-140300828D01*
X103768795Y-140300828D02*
X103911653Y-140372257D01*
X103911653Y-140372257D02*
X103983081Y-140443685D01*
X103983081Y-140443685D02*
X104054510Y-140586542D01*
X104054510Y-140586542D02*
X104054510Y-140657971D01*
X104054510Y-140657971D02*
X103983081Y-140800828D01*
X103983081Y-140800828D02*
X103911653Y-140872257D01*
X103911653Y-140872257D02*
X103768795Y-140943685D01*
X103768795Y-140943685D02*
X103483081Y-140943685D01*
X103483081Y-140943685D02*
X103340224Y-141015114D01*
X103340224Y-141015114D02*
X103268795Y-141086542D01*
X103268795Y-141086542D02*
X103197367Y-141229400D01*
X103197367Y-141229400D02*
X103197367Y-141515114D01*
X103197367Y-141515114D02*
X103268795Y-141657971D01*
X103268795Y-141657971D02*
X103340224Y-141729400D01*
X103340224Y-141729400D02*
X103483081Y-141800828D01*
X103483081Y-141800828D02*
X103768795Y-141800828D01*
X103768795Y-141800828D02*
X103911653Y-141729400D01*
X103911653Y-141729400D02*
X103983081Y-141657971D01*
X103983081Y-141657971D02*
X104054510Y-141515114D01*
X104054510Y-141515114D02*
X104054510Y-141229400D01*
X104054510Y-141229400D02*
X103983081Y-141086542D01*
X103983081Y-141086542D02*
X103911653Y-141015114D01*
X103911653Y-141015114D02*
X103768795Y-140943685D01*
X104697366Y-141229400D02*
X105840224Y-141229400D01*
X106483081Y-140443685D02*
X106554509Y-140372257D01*
X106554509Y-140372257D02*
X106697367Y-140300828D01*
X106697367Y-140300828D02*
X107054509Y-140300828D01*
X107054509Y-140300828D02*
X107197367Y-140372257D01*
X107197367Y-140372257D02*
X107268795Y-140443685D01*
X107268795Y-140443685D02*
X107340224Y-140586542D01*
X107340224Y-140586542D02*
X107340224Y-140729400D01*
X107340224Y-140729400D02*
X107268795Y-140943685D01*
X107268795Y-140943685D02*
X106411652Y-141800828D01*
X106411652Y-141800828D02*
X107340224Y-141800828D01*
X108268795Y-140300828D02*
X108411652Y-140300828D01*
X108411652Y-140300828D02*
X108554509Y-140372257D01*
X108554509Y-140372257D02*
X108625938Y-140443685D01*
X108625938Y-140443685D02*
X108697366Y-140586542D01*
X108697366Y-140586542D02*
X108768795Y-140872257D01*
X108768795Y-140872257D02*
X108768795Y-141229400D01*
X108768795Y-141229400D02*
X108697366Y-141515114D01*
X108697366Y-141515114D02*
X108625938Y-141657971D01*
X108625938Y-141657971D02*
X108554509Y-141729400D01*
X108554509Y-141729400D02*
X108411652Y-141800828D01*
X108411652Y-141800828D02*
X108268795Y-141800828D01*
X108268795Y-141800828D02*
X108125938Y-141729400D01*
X108125938Y-141729400D02*
X108054509Y-141657971D01*
X108054509Y-141657971D02*
X107983080Y-141515114D01*
X107983080Y-141515114D02*
X107911652Y-141229400D01*
X107911652Y-141229400D02*
X107911652Y-140872257D01*
X107911652Y-140872257D02*
X107983080Y-140586542D01*
X107983080Y-140586542D02*
X108054509Y-140443685D01*
X108054509Y-140443685D02*
X108125938Y-140372257D01*
X108125938Y-140372257D02*
X108268795Y-140300828D01*
X109340223Y-140443685D02*
X109411651Y-140372257D01*
X109411651Y-140372257D02*
X109554509Y-140300828D01*
X109554509Y-140300828D02*
X109911651Y-140300828D01*
X109911651Y-140300828D02*
X110054509Y-140372257D01*
X110054509Y-140372257D02*
X110125937Y-140443685D01*
X110125937Y-140443685D02*
X110197366Y-140586542D01*
X110197366Y-140586542D02*
X110197366Y-140729400D01*
X110197366Y-140729400D02*
X110125937Y-140943685D01*
X110125937Y-140943685D02*
X109268794Y-141800828D01*
X109268794Y-141800828D02*
X110197366Y-141800828D01*
X111483080Y-140800828D02*
X111483080Y-141800828D01*
X111125937Y-140229400D02*
X110768794Y-141300828D01*
X110768794Y-141300828D02*
X111697365Y-141300828D01*
X113840222Y-140300828D02*
X113840222Y-141372257D01*
X113840222Y-141372257D02*
X113768793Y-141586542D01*
X113768793Y-141586542D02*
X113625936Y-141729400D01*
X113625936Y-141729400D02*
X113411650Y-141800828D01*
X113411650Y-141800828D02*
X113268793Y-141800828D01*
X115197365Y-141800828D02*
X115197365Y-141015114D01*
X115197365Y-141015114D02*
X115125936Y-140872257D01*
X115125936Y-140872257D02*
X114983079Y-140800828D01*
X114983079Y-140800828D02*
X114697365Y-140800828D01*
X114697365Y-140800828D02*
X114554507Y-140872257D01*
X115197365Y-141729400D02*
X115054507Y-141800828D01*
X115054507Y-141800828D02*
X114697365Y-141800828D01*
X114697365Y-141800828D02*
X114554507Y-141729400D01*
X114554507Y-141729400D02*
X114483079Y-141586542D01*
X114483079Y-141586542D02*
X114483079Y-141443685D01*
X114483079Y-141443685D02*
X114554507Y-141300828D01*
X114554507Y-141300828D02*
X114697365Y-141229400D01*
X114697365Y-141229400D02*
X115054507Y-141229400D01*
X115054507Y-141229400D02*
X115197365Y-141157971D01*
X116554508Y-141729400D02*
X116411650Y-141800828D01*
X116411650Y-141800828D02*
X116125936Y-141800828D01*
X116125936Y-141800828D02*
X115983079Y-141729400D01*
X115983079Y-141729400D02*
X115911650Y-141657971D01*
X115911650Y-141657971D02*
X115840222Y-141515114D01*
X115840222Y-141515114D02*
X115840222Y-141086542D01*
X115840222Y-141086542D02*
X115911650Y-140943685D01*
X115911650Y-140943685D02*
X115983079Y-140872257D01*
X115983079Y-140872257D02*
X116125936Y-140800828D01*
X116125936Y-140800828D02*
X116411650Y-140800828D01*
X116411650Y-140800828D02*
X116554508Y-140872257D01*
X117411650Y-141800828D02*
X117268793Y-141729400D01*
X117268793Y-141729400D02*
X117197364Y-141657971D01*
X117197364Y-141657971D02*
X117125936Y-141515114D01*
X117125936Y-141515114D02*
X117125936Y-141086542D01*
X117125936Y-141086542D02*
X117197364Y-140943685D01*
X117197364Y-140943685D02*
X117268793Y-140872257D01*
X117268793Y-140872257D02*
X117411650Y-140800828D01*
X117411650Y-140800828D02*
X117625936Y-140800828D01*
X117625936Y-140800828D02*
X117768793Y-140872257D01*
X117768793Y-140872257D02*
X117840222Y-140943685D01*
X117840222Y-140943685D02*
X117911650Y-141086542D01*
X117911650Y-141086542D02*
X117911650Y-141515114D01*
X117911650Y-141515114D02*
X117840222Y-141657971D01*
X117840222Y-141657971D02*
X117768793Y-141729400D01*
X117768793Y-141729400D02*
X117625936Y-141800828D01*
X117625936Y-141800828D02*
X117411650Y-141800828D01*
X118554507Y-141800828D02*
X118554507Y-140300828D01*
X118554507Y-140872257D02*
X118697365Y-140800828D01*
X118697365Y-140800828D02*
X118983079Y-140800828D01*
X118983079Y-140800828D02*
X119125936Y-140872257D01*
X119125936Y-140872257D02*
X119197365Y-140943685D01*
X119197365Y-140943685D02*
X119268793Y-141086542D01*
X119268793Y-141086542D02*
X119268793Y-141515114D01*
X119268793Y-141515114D02*
X119197365Y-141657971D01*
X119197365Y-141657971D02*
X119125936Y-141729400D01*
X119125936Y-141729400D02*
X118983079Y-141800828D01*
X118983079Y-141800828D02*
X118697365Y-141800828D01*
X118697365Y-141800828D02*
X118554507Y-141729400D01*
X121054507Y-141800828D02*
X121054507Y-140300828D01*
X121054507Y-140300828D02*
X121554507Y-141372257D01*
X121554507Y-141372257D02*
X122054507Y-140300828D01*
X122054507Y-140300828D02*
X122054507Y-141800828D01*
X123411651Y-141729400D02*
X123268793Y-141800828D01*
X123268793Y-141800828D02*
X122983079Y-141800828D01*
X122983079Y-141800828D02*
X122840222Y-141729400D01*
X122840222Y-141729400D02*
X122768793Y-141657971D01*
X122768793Y-141657971D02*
X122697365Y-141515114D01*
X122697365Y-141515114D02*
X122697365Y-141086542D01*
X122697365Y-141086542D02*
X122768793Y-140943685D01*
X122768793Y-140943685D02*
X122840222Y-140872257D01*
X122840222Y-140872257D02*
X122983079Y-140800828D01*
X122983079Y-140800828D02*
X123268793Y-140800828D01*
X123268793Y-140800828D02*
X123411651Y-140872257D01*
X123983079Y-141729400D02*
X124197365Y-141800828D01*
X124197365Y-141800828D02*
X124554507Y-141800828D01*
X124554507Y-141800828D02*
X124697365Y-141729400D01*
X124697365Y-141729400D02*
X124768793Y-141657971D01*
X124768793Y-141657971D02*
X124840222Y-141515114D01*
X124840222Y-141515114D02*
X124840222Y-141372257D01*
X124840222Y-141372257D02*
X124768793Y-141229400D01*
X124768793Y-141229400D02*
X124697365Y-141157971D01*
X124697365Y-141157971D02*
X124554507Y-141086542D01*
X124554507Y-141086542D02*
X124268793Y-141015114D01*
X124268793Y-141015114D02*
X124125936Y-140943685D01*
X124125936Y-140943685D02*
X124054507Y-140872257D01*
X124054507Y-140872257D02*
X123983079Y-140729400D01*
X123983079Y-140729400D02*
X123983079Y-140586542D01*
X123983079Y-140586542D02*
X124054507Y-140443685D01*
X124054507Y-140443685D02*
X124125936Y-140372257D01*
X124125936Y-140372257D02*
X124268793Y-140300828D01*
X124268793Y-140300828D02*
X124625936Y-140300828D01*
X124625936Y-140300828D02*
X124840222Y-140372257D01*
X125340221Y-140800828D02*
X125625936Y-141800828D01*
X125625936Y-141800828D02*
X125911650Y-141086542D01*
X125911650Y-141086542D02*
X126197364Y-141800828D01*
X126197364Y-141800828D02*
X126483078Y-140800828D01*
X127697365Y-141800828D02*
X127697365Y-141015114D01*
X127697365Y-141015114D02*
X127625936Y-140872257D01*
X127625936Y-140872257D02*
X127483079Y-140800828D01*
X127483079Y-140800828D02*
X127197365Y-140800828D01*
X127197365Y-140800828D02*
X127054507Y-140872257D01*
X127697365Y-141729400D02*
X127554507Y-141800828D01*
X127554507Y-141800828D02*
X127197365Y-141800828D01*
X127197365Y-141800828D02*
X127054507Y-141729400D01*
X127054507Y-141729400D02*
X126983079Y-141586542D01*
X126983079Y-141586542D02*
X126983079Y-141443685D01*
X126983079Y-141443685D02*
X127054507Y-141300828D01*
X127054507Y-141300828D02*
X127197365Y-141229400D01*
X127197365Y-141229400D02*
X127554507Y-141229400D01*
X127554507Y-141229400D02*
X127697365Y-141157971D01*
X128411650Y-141800828D02*
X128411650Y-140800828D01*
X128411650Y-140300828D02*
X128340222Y-140372257D01*
X128340222Y-140372257D02*
X128411650Y-140443685D01*
X128411650Y-140443685D02*
X128483079Y-140372257D01*
X128483079Y-140372257D02*
X128411650Y-140300828D01*
X128411650Y-140300828D02*
X128411650Y-140443685D01*
X129125936Y-140800828D02*
X129125936Y-141800828D01*
X129125936Y-140943685D02*
X129197365Y-140872257D01*
X129197365Y-140872257D02*
X129340222Y-140800828D01*
X129340222Y-140800828D02*
X129554508Y-140800828D01*
X129554508Y-140800828D02*
X129697365Y-140872257D01*
X129697365Y-140872257D02*
X129768794Y-141015114D01*
X129768794Y-141015114D02*
X129768794Y-141800828D01*
D10*
D11*
X83483082Y-138729400D02*
X83697368Y-138800828D01*
X83697368Y-138800828D02*
X84054510Y-138800828D01*
X84054510Y-138800828D02*
X84197368Y-138729400D01*
X84197368Y-138729400D02*
X84268796Y-138657971D01*
X84268796Y-138657971D02*
X84340225Y-138515114D01*
X84340225Y-138515114D02*
X84340225Y-138372257D01*
X84340225Y-138372257D02*
X84268796Y-138229400D01*
X84268796Y-138229400D02*
X84197368Y-138157971D01*
X84197368Y-138157971D02*
X84054510Y-138086542D01*
X84054510Y-138086542D02*
X83768796Y-138015114D01*
X83768796Y-138015114D02*
X83625939Y-137943685D01*
X83625939Y-137943685D02*
X83554510Y-137872257D01*
X83554510Y-137872257D02*
X83483082Y-137729400D01*
X83483082Y-137729400D02*
X83483082Y-137586542D01*
X83483082Y-137586542D02*
X83554510Y-137443685D01*
X83554510Y-137443685D02*
X83625939Y-137372257D01*
X83625939Y-137372257D02*
X83768796Y-137300828D01*
X83768796Y-137300828D02*
X84125939Y-137300828D01*
X84125939Y-137300828D02*
X84340225Y-137372257D01*
X84983081Y-137800828D02*
X84983081Y-138800828D01*
X84983081Y-137943685D02*
X85054510Y-137872257D01*
X85054510Y-137872257D02*
X85197367Y-137800828D01*
X85197367Y-137800828D02*
X85411653Y-137800828D01*
X85411653Y-137800828D02*
X85554510Y-137872257D01*
X85554510Y-137872257D02*
X85625939Y-138015114D01*
X85625939Y-138015114D02*
X85625939Y-138800828D01*
X86911653Y-138729400D02*
X86768796Y-138800828D01*
X86768796Y-138800828D02*
X86483082Y-138800828D01*
X86483082Y-138800828D02*
X86340224Y-138729400D01*
X86340224Y-138729400D02*
X86268796Y-138586542D01*
X86268796Y-138586542D02*
X86268796Y-138015114D01*
X86268796Y-138015114D02*
X86340224Y-137872257D01*
X86340224Y-137872257D02*
X86483082Y-137800828D01*
X86483082Y-137800828D02*
X86768796Y-137800828D01*
X86768796Y-137800828D02*
X86911653Y-137872257D01*
X86911653Y-137872257D02*
X86983082Y-138015114D01*
X86983082Y-138015114D02*
X86983082Y-138157971D01*
X86983082Y-138157971D02*
X86268796Y-138300828D01*
X87625938Y-138800828D02*
X87625938Y-137300828D01*
X87768796Y-138229400D02*
X88197367Y-138800828D01*
X88197367Y-137800828D02*
X87625938Y-138372257D01*
X88768796Y-138729400D02*
X88983082Y-138800828D01*
X88983082Y-138800828D02*
X89340224Y-138800828D01*
X89340224Y-138800828D02*
X89483082Y-138729400D01*
X89483082Y-138729400D02*
X89554510Y-138657971D01*
X89554510Y-138657971D02*
X89625939Y-138515114D01*
X89625939Y-138515114D02*
X89625939Y-138372257D01*
X89625939Y-138372257D02*
X89554510Y-138229400D01*
X89554510Y-138229400D02*
X89483082Y-138157971D01*
X89483082Y-138157971D02*
X89340224Y-138086542D01*
X89340224Y-138086542D02*
X89054510Y-138015114D01*
X89054510Y-138015114D02*
X88911653Y-137943685D01*
X88911653Y-137943685D02*
X88840224Y-137872257D01*
X88840224Y-137872257D02*
X88768796Y-137729400D01*
X88768796Y-137729400D02*
X88768796Y-137586542D01*
X88768796Y-137586542D02*
X88840224Y-137443685D01*
X88840224Y-137443685D02*
X88911653Y-137372257D01*
X88911653Y-137372257D02*
X89054510Y-137300828D01*
X89054510Y-137300828D02*
X89411653Y-137300828D01*
X89411653Y-137300828D02*
X89625939Y-137372257D01*
X90911653Y-138800828D02*
X90911653Y-138015114D01*
X90911653Y-138015114D02*
X90840224Y-137872257D01*
X90840224Y-137872257D02*
X90697367Y-137800828D01*
X90697367Y-137800828D02*
X90411653Y-137800828D01*
X90411653Y-137800828D02*
X90268795Y-137872257D01*
X90911653Y-138729400D02*
X90768795Y-138800828D01*
X90768795Y-138800828D02*
X90411653Y-138800828D01*
X90411653Y-138800828D02*
X90268795Y-138729400D01*
X90268795Y-138729400D02*
X90197367Y-138586542D01*
X90197367Y-138586542D02*
X90197367Y-138443685D01*
X90197367Y-138443685D02*
X90268795Y-138300828D01*
X90268795Y-138300828D02*
X90411653Y-138229400D01*
X90411653Y-138229400D02*
X90768795Y-138229400D01*
X90768795Y-138229400D02*
X90911653Y-138157971D01*
X91411653Y-137800828D02*
X91983081Y-137800828D01*
X91625938Y-138800828D02*
X91625938Y-137515114D01*
X91625938Y-137515114D02*
X91697367Y-137372257D01*
X91697367Y-137372257D02*
X91840224Y-137300828D01*
X91840224Y-137300828D02*
X91983081Y-137300828D01*
X93054510Y-138729400D02*
X92911653Y-138800828D01*
X92911653Y-138800828D02*
X92625939Y-138800828D01*
X92625939Y-138800828D02*
X92483081Y-138729400D01*
X92483081Y-138729400D02*
X92411653Y-138586542D01*
X92411653Y-138586542D02*
X92411653Y-138015114D01*
X92411653Y-138015114D02*
X92483081Y-137872257D01*
X92483081Y-137872257D02*
X92625939Y-137800828D01*
X92625939Y-137800828D02*
X92911653Y-137800828D01*
X92911653Y-137800828D02*
X93054510Y-137872257D01*
X93054510Y-137872257D02*
X93125939Y-138015114D01*
X93125939Y-138015114D02*
X93125939Y-138157971D01*
X93125939Y-138157971D02*
X92411653Y-138300828D01*
X94768795Y-137800828D02*
X95125938Y-138800828D01*
X95125938Y-138800828D02*
X95483081Y-137800828D01*
X96840224Y-138800828D02*
X95983081Y-138800828D01*
X96411652Y-138800828D02*
X96411652Y-137300828D01*
X96411652Y-137300828D02*
X96268795Y-137515114D01*
X96268795Y-137515114D02*
X96125938Y-137657971D01*
X96125938Y-137657971D02*
X95983081Y-137729400D01*
X97483080Y-138657971D02*
X97554509Y-138729400D01*
X97554509Y-138729400D02*
X97483080Y-138800828D01*
X97483080Y-138800828D02*
X97411652Y-138729400D01*
X97411652Y-138729400D02*
X97483080Y-138657971D01*
X97483080Y-138657971D02*
X97483080Y-138800828D01*
X98125938Y-137443685D02*
X98197366Y-137372257D01*
X98197366Y-137372257D02*
X98340224Y-137300828D01*
X98340224Y-137300828D02*
X98697366Y-137300828D01*
X98697366Y-137300828D02*
X98840224Y-137372257D01*
X98840224Y-137372257D02*
X98911652Y-137443685D01*
X98911652Y-137443685D02*
X98983081Y-137586542D01*
X98983081Y-137586542D02*
X98983081Y-137729400D01*
X98983081Y-137729400D02*
X98911652Y-137943685D01*
X98911652Y-137943685D02*
X98054509Y-138800828D01*
X98054509Y-138800828D02*
X98983081Y-138800828D01*
D12*
X142500000Y-84550000D03*
X142500000Y-81450000D03*
X146500000Y-87050000D03*
X146500000Y-83950000D03*
D13*
X128560000Y-70500000D03*
D14*
X126020000Y-70500000D03*
X123480000Y-70500000D03*
X120940000Y-70500000D03*
X118400000Y-70500000D03*
X115860000Y-70500000D03*
X113320000Y-70500000D03*
X110780000Y-70500000D03*
X108240000Y-70500000D03*
X105700000Y-70500000D03*
X103160000Y-70500000D03*
X100620000Y-70500000D03*
X98080000Y-70500000D03*
X95540000Y-70500000D03*
X93000000Y-70500000D03*
X90460000Y-70500000D03*
X87920000Y-70500000D03*
X85380000Y-70500000D03*
X82840000Y-70500000D03*
X128560000Y-95900000D03*
X126020000Y-95900000D03*
X123480000Y-95900000D03*
X120940000Y-95900000D03*
X118400000Y-95900000D03*
X115860000Y-95900000D03*
X113320000Y-95900000D03*
X110780000Y-95900000D03*
X108240000Y-95900000D03*
X105700000Y-95900000D03*
X103160000Y-95900000D03*
X100620000Y-95900000D03*
X98080000Y-95900000D03*
X95540000Y-95900000D03*
X93000000Y-95900000D03*
X90460000Y-95900000D03*
X87920000Y-95900000D03*
X85380000Y-95900000D03*
X82840000Y-95900000D03*
D15*
X137500000Y-68480000D03*
X137500000Y-71580000D03*
X191938500Y-95700000D03*
X191938500Y-98800000D03*
D16*
X184350000Y-119750000D03*
X185052944Y-118052944D03*
X185052944Y-121447056D03*
X186750000Y-117350000D03*
D17*
X186750000Y-119750000D03*
D16*
X186750000Y-122150000D03*
X188447056Y-118052944D03*
X188447056Y-121447056D03*
X189150000Y-119750000D03*
X214850000Y-96000000D03*
X215552944Y-94302944D03*
X215552944Y-97697056D03*
X217250000Y-93600000D03*
D17*
X217250000Y-96000000D03*
D16*
X217250000Y-98400000D03*
X218947056Y-94302944D03*
X218947056Y-97697056D03*
X219650000Y-96000000D03*
X163800000Y-71200000D03*
X164502944Y-69502944D03*
X164502944Y-72897056D03*
X166200000Y-68800000D03*
D17*
X166200000Y-71200000D03*
D16*
X166200000Y-73600000D03*
X167897056Y-69502944D03*
X167897056Y-72897056D03*
X168600000Y-71200000D03*
D18*
X215000000Y-136850000D03*
X215000000Y-130500000D03*
X215000000Y-124150000D03*
X215000000Y-117800000D03*
X215000000Y-111450000D03*
X215000000Y-105100000D03*
D19*
X170220000Y-85940000D03*
D20*
X170220000Y-83400000D03*
X170220000Y-80860000D03*
X170220000Y-78320000D03*
X162600000Y-78320000D03*
X162600000Y-80860000D03*
X162600000Y-83400000D03*
X162600000Y-85940000D03*
D21*
X152250000Y-132000000D03*
D22*
X163000000Y-132000000D03*
X163000000Y-93500000D03*
X155000000Y-93500000D03*
D15*
X182688500Y-95700000D03*
X182688500Y-98800000D03*
D23*
X176250000Y-84350000D03*
X181750000Y-84350000D03*
X181750000Y-82050000D03*
X176250000Y-82050000D03*
D16*
X132600000Y-139250000D03*
X133302944Y-137552944D03*
X133302944Y-140947056D03*
X135000000Y-136850000D03*
D17*
X135000000Y-139250000D03*
D16*
X135000000Y-141650000D03*
X136697056Y-137552944D03*
X136697056Y-140947056D03*
X137400000Y-139250000D03*
D24*
X154250000Y-75850000D03*
D25*
X151750000Y-75850000D03*
X149250000Y-75850000D03*
X146750000Y-75850000D03*
D26*
X177000000Y-121740000D03*
X177000000Y-111580000D03*
X177000000Y-98880000D03*
X177000000Y-93800000D03*
D27*
X141500000Y-68437500D03*
X141500000Y-71562500D03*
D18*
X90650000Y-117395000D03*
X90650000Y-123745000D03*
X90650000Y-130095000D03*
X181400000Y-70100000D03*
X186400000Y-73900000D03*
X191400000Y-70100000D03*
D26*
X197000000Y-121740000D03*
X197000000Y-111580000D03*
X197000000Y-98880000D03*
X197000000Y-93800000D03*
D28*
X207200000Y-136800000D03*
X193200000Y-136800000D03*
X202200000Y-137000000D03*
X180600000Y-126200000D03*
X189800000Y-134400000D03*
X184600000Y-128800000D03*
X187000000Y-131600000D03*
X179000000Y-123400000D03*
X197400000Y-137000000D03*
X94800000Y-117200000D03*
X148600000Y-117600000D03*
X126400000Y-117400000D03*
X170600000Y-111400000D03*
X131200000Y-117400000D03*
X137400000Y-117400000D03*
X154800000Y-123800000D03*
X106600000Y-117400000D03*
X158000000Y-127000000D03*
X158200000Y-117600000D03*
X97400000Y-117200000D03*
X153600000Y-117800000D03*
X143200000Y-117400000D03*
X151400000Y-120400000D03*
X121600000Y-117400000D03*
X162800000Y-127000000D03*
X186000000Y-111400000D03*
X166000000Y-114000000D03*
X101600000Y-117400000D03*
X117200000Y-117400000D03*
X112200000Y-117400000D03*
X162600000Y-122800000D03*
X163000000Y-117200000D03*
X191000000Y-111600000D03*
X174800000Y-111600000D03*
X181400000Y-111400000D03*
X204800000Y-119400000D03*
X210000000Y-119400000D03*
X200600000Y-119600000D03*
X218800000Y-133000000D03*
X142000000Y-130000000D03*
X191000000Y-142200000D03*
X220800000Y-119000000D03*
X198000000Y-142400000D03*
X218600000Y-128000000D03*
X148000000Y-130000000D03*
X106600000Y-130000000D03*
X102800000Y-130200000D03*
X220400000Y-135600000D03*
X125800000Y-130000000D03*
X218600000Y-111800000D03*
X220000000Y-140600000D03*
X134800000Y-130000000D03*
X119000000Y-130000000D03*
X98400000Y-130200000D03*
X178200000Y-142600000D03*
X95000000Y-130400000D03*
X207800000Y-142600000D03*
X220800000Y-123200000D03*
X215400000Y-142600000D03*
X184400000Y-142400000D03*
X221000000Y-114600000D03*
X156000000Y-136200000D03*
X169400000Y-142400000D03*
X162000000Y-141200000D03*
X111800000Y-130200000D03*
X142500000Y-80000000D03*
X146500000Y-82500000D03*
D29*
X202050000Y-136850000D02*
X202200000Y-137000000D01*
X197400000Y-137000000D02*
X197550000Y-136850000D01*
X177000000Y-121740000D02*
X180600000Y-125340000D01*
X202200000Y-137000000D02*
X202350000Y-136850000D01*
X197550000Y-136850000D02*
X202050000Y-136850000D01*
X180600000Y-125340000D02*
X180600000Y-126200000D01*
X192110000Y-136850000D02*
X197250000Y-136850000D01*
X202350000Y-136850000D02*
X215000000Y-136850000D01*
X180600000Y-126200000D02*
X181460000Y-126200000D01*
X197250000Y-136850000D02*
X197400000Y-137000000D01*
X181460000Y-126200000D02*
X192110000Y-136850000D01*
D30*
X158200000Y-117600000D02*
X162400000Y-117600000D01*
X163000000Y-132000000D02*
X148395000Y-117395000D01*
X153800000Y-117600000D02*
X158200000Y-117600000D01*
X162400000Y-117600000D02*
X163000000Y-117000000D01*
X148395000Y-117395000D02*
X90650000Y-117395000D01*
X181400000Y-111400000D02*
X181580000Y-111580000D01*
X166000000Y-114000000D02*
X168420000Y-111580000D01*
X148600000Y-117600000D02*
X153400000Y-117600000D01*
X181220000Y-111580000D02*
X181400000Y-111400000D01*
X153400000Y-117600000D02*
X153600000Y-117800000D01*
X168420000Y-111580000D02*
X170420000Y-111580000D01*
X163000000Y-117000000D02*
X166000000Y-114000000D01*
X153600000Y-117800000D02*
X153800000Y-117600000D01*
X170420000Y-111580000D02*
X170600000Y-111400000D01*
X181580000Y-111580000D02*
X185820000Y-111580000D01*
X186000000Y-111400000D02*
X186180000Y-111580000D01*
X185820000Y-111580000D02*
X186000000Y-111400000D01*
X170600000Y-111400000D02*
X170780000Y-111580000D01*
X170780000Y-111580000D02*
X177000000Y-111580000D01*
X186180000Y-111580000D02*
X197000000Y-111580000D01*
X177000000Y-111580000D02*
X181220000Y-111580000D01*
X163000000Y-132000000D02*
X163000000Y-117000000D01*
D31*
X113053707Y-98173707D02*
X110780000Y-95900000D01*
X182538500Y-95850000D02*
X182688500Y-95700000D01*
X174253963Y-96000000D02*
X182176367Y-96000000D01*
X170406206Y-97593792D02*
X169826292Y-98173707D01*
X116901463Y-99767500D02*
X165978536Y-99767500D01*
X169826292Y-98173707D02*
G75*
G02*
X165978536Y-99767510I-3847792J3847807D01*
G01*
X182538499Y-95849999D02*
G75*
G02*
X182176367Y-95999986I-362099J362099D01*
G01*
X113053708Y-98173706D02*
G75*
G03*
X116901463Y-99767510I3847792J3847806D01*
G01*
X174253963Y-96000000D02*
G75*
G03*
X170406215Y-97593801I37J-5441600D01*
G01*
X149662150Y-71562500D02*
X141500000Y-71562500D01*
X154250000Y-75050000D02*
X154250000Y-75850000D01*
X153684314Y-73684314D02*
X152906250Y-72906250D01*
X153684314Y-73684314D02*
G75*
G02*
X154249991Y-75050000I-1365714J-1365686D01*
G01*
X152906250Y-72906250D02*
G75*
G03*
X149662150Y-71562521I-3244050J-3244050D01*
G01*
D29*
X199340000Y-119400000D02*
X197000000Y-121740000D01*
X213400000Y-119400000D02*
X199340000Y-119400000D01*
X215000000Y-117800000D02*
X213400000Y-119400000D01*
D31*
X111513707Y-99173707D02*
X108240000Y-95900000D01*
X188464792Y-99173707D02*
X191938500Y-95700000D01*
X115361463Y-100767500D02*
X184617036Y-100767500D01*
X188464792Y-99173707D02*
G75*
G02*
X184617036Y-100767510I-3847792J3847807D01*
G01*
X111513708Y-99173706D02*
G75*
G03*
X115361463Y-100767510I3847792J3847806D01*
G01*
D30*
X215685713Y-130500000D02*
X215000000Y-130500000D01*
X162000000Y-141200000D02*
X162000000Y-141750000D01*
X220600000Y-134671825D02*
X220600000Y-139028174D01*
X215000000Y-130500000D02*
X216428175Y-130500000D01*
X161450000Y-141200000D02*
X162000000Y-141200000D01*
X162600000Y-142350000D02*
X190850000Y-142350000D01*
X220500000Y-113100000D02*
X220500000Y-125685713D01*
X162000000Y-141750000D02*
X162600000Y-142350000D01*
X216428175Y-130500000D02*
X220600000Y-134671825D01*
X90650000Y-130095000D02*
X150345000Y-130095000D01*
X191000000Y-142200000D02*
X191150000Y-142350000D01*
X217278174Y-142350000D02*
X220600000Y-139028174D01*
X152250000Y-132000000D02*
X161450000Y-141200000D01*
X215000000Y-111450000D02*
X218850000Y-111450000D01*
X150345000Y-130095000D02*
X152250000Y-132000000D01*
X220500000Y-125685713D02*
X215685713Y-130500000D01*
X191150000Y-142350000D02*
X217278174Y-142350000D01*
X218850000Y-111450000D02*
X220500000Y-113100000D01*
X190850000Y-142350000D02*
X191000000Y-142200000D01*
D31*
X156400000Y-74453963D02*
X156400000Y-91110050D01*
X155000000Y-93500000D02*
X155700000Y-92800000D01*
X82840000Y-69955000D02*
X82840000Y-70500000D01*
X155700000Y-92800000D02*
X155740000Y-92800000D01*
X87380904Y-66750000D02*
X148696036Y-66750000D01*
X154806207Y-70606207D02*
X152543792Y-68343792D01*
X155740000Y-92800000D02*
X162600000Y-85940000D01*
X84169999Y-68079999D02*
X83225373Y-69024626D01*
X152543791Y-68343793D02*
G75*
G03*
X148696036Y-66749990I-3847791J-3847807D01*
G01*
X83225373Y-69024626D02*
G75*
G03*
X82839986Y-69955000I930327J-930374D01*
G01*
X87380904Y-66750000D02*
G75*
G03*
X84169999Y-68079999I-4J-4540900D01*
G01*
X154806206Y-70606208D02*
G75*
G02*
X156400010Y-74453963I-3847806J-3847792D01*
G01*
X156400000Y-91110050D02*
G75*
G02*
X155699985Y-92799985I-2390000J50D01*
G01*
X123480000Y-96440000D02*
X123480000Y-95900000D01*
X140326292Y-96173706D02*
X140906207Y-95593792D01*
X136478536Y-97767500D02*
X124824346Y-97767500D01*
X123873750Y-97373750D02*
X123861837Y-97361837D01*
X142500000Y-84550000D02*
X142500000Y-91746036D01*
X149250000Y-76825000D02*
X149250000Y-75850000D01*
X142500000Y-84550000D02*
X148560570Y-78489429D01*
X140326292Y-96173706D02*
G75*
G02*
X136478536Y-97767509I-3847792J3847806D01*
G01*
X123873750Y-97373750D02*
G75*
G03*
X124824346Y-97767451I950550J950650D01*
G01*
X142500000Y-91746036D02*
G75*
G02*
X140906200Y-95593785I-5441600J36D01*
G01*
X123480000Y-96440000D02*
G75*
G03*
X123861832Y-97361842I1303700J0D01*
G01*
X149250000Y-76825000D02*
G75*
G02*
X148560579Y-78489438I-2353900J0D01*
G01*
X182551931Y-98880000D02*
X177000000Y-98880000D01*
X182648500Y-98840000D02*
X182688500Y-98800000D01*
X182648500Y-98840000D02*
G75*
G02*
X182551931Y-98880013I-96600J96600D01*
G01*
X191978500Y-98840000D02*
X191938500Y-98800000D01*
X192075068Y-98880000D02*
X197000000Y-98880000D01*
X191978500Y-98840000D02*
G75*
G03*
X192075068Y-98880013I96600J96600D01*
G01*
X146500000Y-82500000D02*
X146500000Y-83950000D01*
X141878858Y-73500000D02*
X142738299Y-73500000D01*
X139525000Y-72525000D02*
X138921231Y-71921231D01*
X142500000Y-81175000D02*
X142500000Y-80000000D01*
X138025000Y-71550000D02*
X137500000Y-71550000D01*
X143244454Y-81255545D02*
X146078248Y-78421751D01*
X145575000Y-74675000D02*
X146078248Y-75178248D01*
X135707537Y-70500000D02*
X128560000Y-70500000D01*
X136975000Y-71025000D02*
X137500000Y-71550000D01*
X136975000Y-71025000D02*
G75*
G03*
X135707537Y-70499985I-1267500J-1267500D01*
G01*
X142500000Y-81175000D02*
G75*
G03*
X142775000Y-81450000I275000J0D01*
G01*
X139525000Y-72525000D02*
G75*
G03*
X141878858Y-73500017I2353900J2353900D01*
G01*
X146078247Y-75178249D02*
G75*
G02*
X146750000Y-76800000I-1621747J-1621751D01*
G01*
X138921230Y-71921232D02*
G75*
G03*
X138025000Y-71550012I-896230J-896268D01*
G01*
X145575000Y-74675000D02*
G75*
G03*
X142738299Y-73500001I-2836700J-2836700D01*
G01*
X146750000Y-76800000D02*
G75*
G02*
X146078248Y-78421751I-2293500J0D01*
G01*
X143244453Y-81255544D02*
G75*
G02*
X142775000Y-81450001I-469453J469444D01*
G01*
X144906207Y-94593792D02*
X142326292Y-97173707D01*
X146500000Y-87050000D02*
X146500000Y-90746036D01*
X138478536Y-98767500D02*
X117409199Y-98767500D01*
X146500000Y-87050000D02*
X150156207Y-83393792D01*
X151750000Y-79546036D02*
X151750000Y-75850000D01*
X115860000Y-97218300D02*
X115860000Y-95900000D01*
X146500000Y-90746036D02*
G75*
G02*
X144906200Y-94593785I-5441600J36D01*
G01*
X151750000Y-79546036D02*
G75*
G02*
X150156200Y-83393785I-5441600J36D01*
G01*
X142326292Y-97173707D02*
G75*
G02*
X138478536Y-98767510I-3847792J3847807D01*
G01*
X116313750Y-98313750D02*
G75*
G03*
X117409199Y-98767500I1095450J1095450D01*
G01*
X115860000Y-97218300D02*
G75*
G03*
X116313750Y-98313750I1549200J0D01*
G01*
X126020000Y-69781543D02*
X126020000Y-70500000D01*
X137521338Y-68437500D02*
X141500000Y-68437500D01*
X137491161Y-68450000D02*
X127351543Y-68450000D01*
X137506249Y-68443749D02*
G75*
G02*
X137491161Y-68449983I-15049J15049D01*
G01*
X127351543Y-68450000D02*
G75*
G03*
X126409987Y-68839987I-43J-1331500D01*
G01*
X137521338Y-68437500D02*
G75*
G03*
X137506239Y-68443739I-38J-21300D01*
G01*
X126410000Y-68840000D02*
G75*
G03*
X126020018Y-69781543I941500J-941500D01*
G01*
X170220000Y-80860000D02*
X173940000Y-80860000D01*
X183000000Y-71800000D02*
X189700000Y-71800000D01*
X173940000Y-80860000D02*
X183000000Y-71800000D01*
X189700000Y-71800000D02*
X191400000Y-70100000D01*
X174660000Y-85940000D02*
X176250000Y-84350000D01*
X170220000Y-85940000D02*
X174660000Y-85940000D01*
X170220000Y-83400000D02*
X174900000Y-83400000D01*
X174900000Y-83400000D02*
X176250000Y-82050000D01*
G04 #@! TA.AperFunction,Conductor*
G36*
X146860155Y-82649155D02*
G01*
X146866473Y-82655502D01*
X146866971Y-82662920D01*
X146702289Y-83291266D01*
X146696876Y-83298400D01*
X146690971Y-83300000D01*
X146309029Y-83300000D01*
X146300756Y-83296573D01*
X146297711Y-83291266D01*
X146282585Y-83233553D01*
X146133028Y-82662918D01*
X146134246Y-82654049D01*
X146139842Y-82649156D01*
X146495500Y-82500875D01*
X146504449Y-82500855D01*
X146860155Y-82649155D01*
G37*
G04 #@! TD.AperFunction*
G04 #@! TA.AperFunction,Conductor*
G36*
X142860155Y-80149155D02*
G01*
X142866473Y-80155502D01*
X142866971Y-80162920D01*
X142702289Y-80791266D01*
X142696876Y-80798400D01*
X142690971Y-80800000D01*
X142309029Y-80800000D01*
X142300756Y-80796573D01*
X142297711Y-80791266D01*
X142282585Y-80733553D01*
X142133028Y-80162918D01*
X142134246Y-80154049D01*
X142139842Y-80149156D01*
X142495500Y-80000875D01*
X142504449Y-80000855D01*
X142860155Y-80149155D01*
G37*
G04 #@! TD.AperFunction*
M02*
