G04 #@! TF.GenerationSoftware,KiCad,Pcbnew,8.0.1*
G04 #@! TF.CreationDate,2024-04-01T00:43:30-05:00*
G04 #@! TF.ProjectId,sneksafe,736e656b-7361-4666-952e-6b696361645f,rev?*
G04 #@! TF.SameCoordinates,Original*
G04 #@! TF.FileFunction,Soldermask,Bot*
G04 #@! TF.FilePolarity,Negative*
%FSLAX46Y46*%
G04 Gerber Fmt 4.6, Leading zero omitted, Abs format (unit mm)*
G04 Created by KiCad (PCBNEW 8.0.1) date 2024-04-01 00:43:30*
%MOMM*%
%LPD*%
G01*
G04 APERTURE LIST*
G04 Aperture macros list*
%AMRoundRect*
0 Rectangle with rounded corners*
0 $1 Rounding radius*
0 $2 $3 $4 $5 $6 $7 $8 $9 X,Y pos of 4 corners*
0 Add a 4 corners polygon primitive as box body*
4,1,4,$2,$3,$4,$5,$6,$7,$8,$9,$2,$3,0*
0 Add four circle primitives for the rounded corners*
1,1,$1+$1,$2,$3*
1,1,$1+$1,$4,$5*
1,1,$1+$1,$6,$7*
1,1,$1+$1,$8,$9*
0 Add four rect primitives between the rounded corners*
20,1,$1+$1,$2,$3,$4,$5,0*
20,1,$1+$1,$4,$5,$6,$7,0*
20,1,$1+$1,$6,$7,$8,$9,0*
20,1,$1+$1,$8,$9,$2,$3,0*%
G04 Aperture macros list end*
%ADD10R,1.560000X1.560000*%
%ADD11C,1.560000*%
%ADD12C,0.800000*%
%ADD13C,6.400000*%
%ADD14C,1.950000*%
%ADD15R,1.600000X1.600000*%
%ADD16O,1.600000X1.600000*%
%ADD17R,1.800000X1.800000*%
%ADD18C,1.800000*%
%ADD19RoundRect,0.250000X0.600000X0.725000X-0.600000X0.725000X-0.600000X-0.725000X0.600000X-0.725000X0*%
%ADD20O,1.700000X1.950000*%
%ADD21C,2.175000*%
G04 APERTURE END LIST*
D10*
X128560000Y-70500000D03*
D11*
X126020000Y-70500000D03*
X123480000Y-70500000D03*
X120940000Y-70500000D03*
X118400000Y-70500000D03*
X115860000Y-70500000D03*
X113320000Y-70500000D03*
X110780000Y-70500000D03*
X108240000Y-70500000D03*
X105700000Y-70500000D03*
X103160000Y-70500000D03*
X100620000Y-70500000D03*
X98080000Y-70500000D03*
X95540000Y-70500000D03*
X93000000Y-70500000D03*
X90460000Y-70500000D03*
X87920000Y-70500000D03*
X85380000Y-70500000D03*
X82840000Y-70500000D03*
X128560000Y-95900000D03*
X126020000Y-95900000D03*
X123480000Y-95900000D03*
X120940000Y-95900000D03*
X118400000Y-95900000D03*
X115860000Y-95900000D03*
X113320000Y-95900000D03*
X110780000Y-95900000D03*
X108240000Y-95900000D03*
X105700000Y-95900000D03*
X103160000Y-95900000D03*
X100620000Y-95900000D03*
X98080000Y-95900000D03*
X95540000Y-95900000D03*
X93000000Y-95900000D03*
X90460000Y-95900000D03*
X87920000Y-95900000D03*
X85380000Y-95900000D03*
X82840000Y-95900000D03*
D12*
X184350000Y-119750000D03*
X185052944Y-118052944D03*
X185052944Y-121447056D03*
X186750000Y-117350000D03*
D13*
X186750000Y-119750000D03*
D12*
X186750000Y-122150000D03*
X188447056Y-118052944D03*
X188447056Y-121447056D03*
X189150000Y-119750000D03*
X214850000Y-96000000D03*
X215552944Y-94302944D03*
X215552944Y-97697056D03*
X217250000Y-93600000D03*
D13*
X217250000Y-96000000D03*
D12*
X217250000Y-98400000D03*
X218947056Y-94302944D03*
X218947056Y-97697056D03*
X219650000Y-96000000D03*
X163800000Y-71200000D03*
X164502944Y-69502944D03*
X164502944Y-72897056D03*
X166200000Y-68800000D03*
D13*
X166200000Y-71200000D03*
D12*
X166200000Y-73600000D03*
X167897056Y-69502944D03*
X167897056Y-72897056D03*
X168600000Y-71200000D03*
D14*
X215000000Y-136850000D03*
X215000000Y-130500000D03*
X215000000Y-124150000D03*
X215000000Y-117800000D03*
X215000000Y-111450000D03*
X215000000Y-105100000D03*
D15*
X170220000Y-85940000D03*
D16*
X170220000Y-83400000D03*
X170220000Y-80860000D03*
X170220000Y-78320000D03*
X162600000Y-78320000D03*
X162600000Y-80860000D03*
X162600000Y-83400000D03*
X162600000Y-85940000D03*
D17*
X152250000Y-132000000D03*
D18*
X163000000Y-132000000D03*
X163000000Y-93500000D03*
X155000000Y-93500000D03*
D12*
X132600000Y-139250000D03*
X133302944Y-137552944D03*
X133302944Y-140947056D03*
X135000000Y-136850000D03*
D13*
X135000000Y-139250000D03*
D12*
X135000000Y-141650000D03*
X136697056Y-137552944D03*
X136697056Y-140947056D03*
X137400000Y-139250000D03*
D19*
X154250000Y-75850000D03*
D20*
X151750000Y-75850000D03*
X149250000Y-75850000D03*
X146750000Y-75850000D03*
D21*
X177000000Y-121740000D03*
X177000000Y-111580000D03*
X177000000Y-98880000D03*
X177000000Y-93800000D03*
D14*
X90650000Y-117395000D03*
X90650000Y-123745000D03*
X90650000Y-130095000D03*
X181400000Y-70100000D03*
X186400000Y-73900000D03*
X191400000Y-70100000D03*
D21*
X197000000Y-121740000D03*
X197000000Y-111580000D03*
X197000000Y-98880000D03*
X197000000Y-93800000D03*
D12*
X207200000Y-136800000D03*
X193200000Y-136800000D03*
X202200000Y-137000000D03*
X180600000Y-126200000D03*
X189800000Y-134400000D03*
X184600000Y-128800000D03*
X187000000Y-131600000D03*
X179000000Y-123400000D03*
X197400000Y-137000000D03*
X94800000Y-117200000D03*
X148600000Y-117600000D03*
X126400000Y-117400000D03*
X170600000Y-111400000D03*
X131200000Y-117400000D03*
X137400000Y-117400000D03*
X154800000Y-123800000D03*
X106600000Y-117400000D03*
X158000000Y-127000000D03*
X158200000Y-117600000D03*
X97400000Y-117200000D03*
X153600000Y-117800000D03*
X143200000Y-117400000D03*
X151400000Y-120400000D03*
X121600000Y-117400000D03*
X162800000Y-127000000D03*
X186000000Y-111400000D03*
X166000000Y-114000000D03*
X101600000Y-117400000D03*
X117200000Y-117400000D03*
X112200000Y-117400000D03*
X162600000Y-122800000D03*
X163000000Y-117200000D03*
X191000000Y-111600000D03*
X174800000Y-111600000D03*
X181400000Y-111400000D03*
X204800000Y-119400000D03*
X210000000Y-119400000D03*
X200600000Y-119600000D03*
X218800000Y-133000000D03*
X142000000Y-130000000D03*
X191000000Y-142200000D03*
X220800000Y-119000000D03*
X198000000Y-142400000D03*
X218600000Y-128000000D03*
X148000000Y-130000000D03*
X106600000Y-130000000D03*
X102800000Y-130200000D03*
X220400000Y-135600000D03*
X125800000Y-130000000D03*
X218600000Y-111800000D03*
X220000000Y-140600000D03*
X134800000Y-130000000D03*
X119000000Y-130000000D03*
X98400000Y-130200000D03*
X178200000Y-142600000D03*
X95000000Y-130400000D03*
X207800000Y-142600000D03*
X220800000Y-123200000D03*
X215400000Y-142600000D03*
X184400000Y-142400000D03*
X221000000Y-114600000D03*
X156000000Y-136200000D03*
X169400000Y-142400000D03*
X162000000Y-141200000D03*
X111800000Y-130200000D03*
X142500000Y-80000000D03*
X146500000Y-82500000D03*
M02*
